<svg id="Ebene_1" data-name="Ebene 1" xmlns="http://www.w3.org/2000/svg" viewBox="0 0 84 85.77"><defs><style>.cls-1{fill:none;stroke:#000;stroke-miterlimit:10;stroke-width:2px;}</style></defs><g id="Fragezeichen"><path class="cls-1" d="M650.6,316.52h66l7,8v48l-8,9s-32.5.5-45.5.5-19.5,10.5-19.5,10.5l4-11-13-9v-47Z" transform="translate(-640.6 -315.52)"/><polyline class="cls-1" points="6 54 6 10 10 6 75 6 78 10 78 57"/><polyline class="cls-1" points="74 61.5 41 61 34 61"/><line class="cls-1" x1="21" y1="18.5" x2="28" y2="18.5"/><line class="cls-1" x1="21" y1="27.5" x2="27" y2="27.5"/><line class="cls-1" x1="21" y1="38" x2="28" y2="38"/><line class="cls-1" x1="20" y1="48" x2="28" y2="48"/><line class="cls-1" x1="32" y1="18.5" x2="65" y2="18.5"/><line class="cls-1" x1="31" y1="28" x2="64" y2="28"/><line class="cls-1" x1="32" y1="38" x2="65" y2="38"/><line class="cls-1" x1="31" y1="48" x2="65" y2="48"/></g></svg>