<svg id="Ebene_1" data-name="Ebene 1" xmlns="http://www.w3.org/2000/svg" viewBox="0 0 73.88 84.81"><defs><style>.cls-1{fill:none;stroke:#000;stroke-miterlimit:10;stroke-width:2px;}</style></defs><g id="C"><polygon class="cls-1" points="1 21.78 1 63.03 36.94 83.65 72.88 63.03 72.88 21.78 36.94 1.15 1 21.78"/><path class="cls-1" d="M706.66,345l-24,12.92,24,13.91a27.49,27.49,0,0,1-24,13.92c-24,0-27-21.87-27-27.83,0-9.94,8-24.85,24-25.85C699.66,331.07,706.66,345,706.66,345Z" transform="translate(-645.66 -316)"/><line class="cls-1" x1="15" y1="45.88" x2="20" y2="45.88"/><line class="cls-1" x1="18" y1="54.83" x2="23" y2="51.85"/><line class="cls-1" x1="23" y1="59.8" x2="27" y2="56.82"/><line class="cls-1" x1="31" y1="63.77" x2="32" y2="58.8"/></g></svg>