<svg id="Ebene_1" data-name="Ebene 1" xmlns="http://www.w3.org/2000/svg" viewBox="0 0 62.18 81.38"><defs><style>.cls-1{fill:none;stroke:#000;stroke-miterlimit:10;stroke-width:2px;}</style></defs><path d="M706.14,380v3.61a8.86,8.86,0,0,0-.27.86c-.43,1.63-.09,3.13.07,4.86.07.76.13,1.5.2,2.25v12.89a6.56,6.56,0,0,0-.44,1.69,15.7,15.7,0,0,0,.32,2.27,25.62,25.62,0,0,1-.09,4.57l.24-.67a51.09,51.09,0,0,0-4.35,4.72l1.19-.57c-.43,0-.88,0-1.33.09a73.67,73.67,0,0,1-7.35.53l-2.75,0H680.45l-2.11-.21a50.47,50.47,0,0,0-6.83.21h-1.59c-.34,0-.69,0-1-.09a20.72,20.72,0,0,0-2.67-.33c-.57,0-1.15.17-1.71.22s-1-.06-1.44-.06-.74-.13-1.06-.18l1,.49a7.68,7.68,0,0,0-1.25-1.64c-.15.07-.35,0-.51-.05l-.2-.21c-.2-.47-.45-1-.61-1.43-.21-.15-.43-.27-.64-.4a6.51,6.51,0,0,0-.65-1.38l.32.93a6.89,6.89,0,0,0-.22-3,11.44,11.44,0,0,0,0-1.19,15.75,15.75,0,0,0-.43-2.82v-.39a6.94,6.94,0,0,1,.73-3l-.2-.6c.28-1.13.09-3.82-.51-4.54v-.11l.09-1a6.56,6.56,0,0,0,.28-3.37c0-.57,0-1.15,0-1.78q-.1-4.38-.21-9v-.84a15.78,15.78,0,0,0,.16-2.08,6.93,6.93,0,0,0-.1-1.18,29.15,29.15,0,0,0-.26-5.42v-.09l.12-1.45c.07,0,.14,0,.21-.06a19.1,19.1,0,0,1-.13-3c0-.12.16,0,.19,0-.23-1-.06-1.46.41-1.29-.12-.27-.19-.93-.31-1.23.54-.75.17-4.61-.14-6,.1-1.18.19-2.36.21-3.55,0-.37,0-.7,0-1l-.29.87c.85-1.13,1.12-1.69.81-2l1.69-2.26-.42-.32,0,0h-.11l-.76-.57-.11.15c0-.05-.09-.09-.13-.15-1,1.36-1.65,2.52-2.55,3.65l-.26.24-.09.08-.07.4a23.2,23.2,0,0,0-.19,5c0,.57,0,1.15,0,1.81,0,2.24.05,4.5,0,6.75a23,23,0,0,0,0,3.71,2.34,2.34,0,0,0,.1.4c0,2.17.08,4.34.2,6.53v1.42l-.12.41a14.38,14.38,0,0,0-.64,5.64c.15,5.85-.56,12.27.3,17.94.16,1.14.31,2.18.46,3.24v5.42l.15.19,2.62,3.27A3.82,3.82,0,0,0,661,418c-.14.18-.11.49,0,.87l.07.18.92.3c1.54.5,5.19.29,6.56.09.08-.07,0-.14.06-.21,1.86,0,5.88-.27,7.13.07.62-.21,1.38-.32,1.91-.53H680a10.67,10.67,0,0,0,2.24,1c.61-.81,2.92-.82,4.24-.81.6,0,1.53.09,2.42.12.06,0,.1.09.09.14a15.77,15.77,0,0,0,2.28,0,.48.48,0,0,1-.12.08c1.13.11,2-.05,2.36-.52h.67a18.32,18.32,0,0,0,3.43.58c1.39,0,2.9-.3,4.34-.37.46,0,.83-.06,1-.1l.48-.09.14-.21a7.84,7.84,0,0,0,.45-.73l3.47-4.34.15-.19v-1.53a53,53,0,0,0,.21-7.4,19.67,19.67,0,0,0-.2-4.37V380Zm-47.26-12.78v-1.64l.06-.05Zm.19-5.77h0l0-.15Z" transform="translate(-651.51 -343.25)"/><path d="M677.79,401.43l.29-.58a1.62,1.62,0,0,0,.31,0c.51-.07.33-.46.32-.81,0-.15,0-.3,0-.44l1-2.07c.19,0,.45,0,.53-.07s-.11-.35-.11-.51c0-.87,1.47-.9,1.38-1.78a2.85,2.85,0,0,1,.12-1.41l.19-.45.89-1.79.35-.24c.4-.29.27-.81.37-1.19l.13-.25a.42.42,0,0,1,.16-.13c.14-.08.46-.15.51-.28s-.06-.26-.06-.37a1,1,0,0,0,.17-.2c.21-.11.45-.08.45-.41a1.56,1.56,0,0,1-.3-.22v0a3.65,3.65,0,0,1,.49-.06,1.53,1.53,0,0,0-.16-.22c.49,0,.78-.24.47-.66a.36.36,0,0,0,.13-.17c.07-.19-.08-.43-.16-.65l0-.06a1,1,0,0,1,.9-.16l-.13-.18c.34-.06.38-.58-.09-1,0,0,0,0,0,0l.16-.12c.49,0,.59-.15.53-.41a.85.85,0,0,0,.16-.28c.16-.5.32-1,.52-1.54l.07-.13c.12-.08.26-.15.31-.26a.39.39,0,0,0,0-.24,1.11,1.11,0,0,0,.2-1v0l.22-.18a1.76,1.76,0,0,0,.2.09c0-.19,0-.4.12-.53s.14.07.17.08c-.13-.25.06-.26.47,0-.09-.1-.1-.24-.18-.34.55.13.52-.66.36-1a2.1,2.1,0,0,0,.47-.47c.22-.31.24-.48-.25-.75l.23-.45-.48-.24h0l-.09,0-.84-.42,0,0-.17-.09a3,3,0,0,1-.22.78.84.84,0,0,0-.65.74c-.05.09-.09.18-.14.29-.19.35-.32.74-.54,1.08-.11.18-.38.33-.3.59a.34.34,0,0,0,0,.11,4.63,4.63,0,0,0-.34,1.13l-.12.23h-.14c-.7,0-.88.18-1,.62-.34,1-1.49,1.72-1.17,3,.06.26.1.49.15.72l-.75,1.5c-.13,0-.22.09-.17.22-1-.46-1.22.5-1.13.89.06,0,.12.06.19.11-.12.31-.23,1.06-.65,1.1.15.2.18.37.33.55l-.19.37a5.2,5.2,0,0,0-1.06-.08c.68.47.51.84.39,1.05s-.2.2-.3.33a.35.35,0,0,1-.13,0c-.15.09-.15.23-.19.36l-.07,0c-.19.13-.11.35.28.61l0,.11c-.3.09-.67.08-.79.29s0,.59,0,.86a.72.72,0,0,0,0,.39l-.55,1.1c-.51.25-.56.66-.78,1.09-.11.22-.36.45-.17.79h0l-1.6,3.19Zm10.62-21.24.13-.26h.06Zm.63-.84h0l0,0Z" transform="translate(-651.51 -343.25)"/><path class="cls-1" d="M674,386" transform="translate(-651.51 -343.25)"/><path class="cls-1" d="M674,386" transform="translate(-651.51 -343.25)"/><path d="M673.52,396.33l-.37-.26c0-.1.05-.19.07-.28.08-.46-.26-.3-.53-.29h-.34l-1.31-.93c.05-.17.14-.41.09-.48s-.29.1-.42.1c-.66,0-.29-1.32-1-1.24a1.79,1.79,0,0,1-1.05-.1l-.29-.18-1.12-.8-.1-.32c-.09-.27-.35-.27-.59-.29l0,1.56a.59.59,0,0,1,.11-.19l.15-.12a.42.42,0,0,1,.16,0c.13,0,.39.14.46.07s0-.22,0-.31a.35.35,0,0,0,.18-.05c.19,0,.37.18.44-.06-.09-.13-.12-.22-.18-.32l0,0c.13.08.25.13.39.22,0-.08-.05-.16-.08-.25.39.27.67.24.52-.23a.2.2,0,0,0,.15-.06c.09-.09,0-.35,0-.55l0,0c.19,0,.32,0,.73.36l-.06-.21c.29.14.44-.21.15-.74a0,0,0,0,0,0,0H670c.38.26.49.2.5,0a.35.35,0,0,0,.19-.12c.25-.28.49-.57.77-.84a.27.27,0,0,1,.08-.07c.12,0,.24,0,.3,0s.06-.09.06-.16a.61.61,0,0,0,.38-.62h0l.22,0a1.09,1.09,0,0,0,.13.17c0-.14.07-.31.21-.33a1.11,1.11,0,0,1,.12.16c0-.26.11-.16.38.23-.05-.12,0-.23-.07-.34.4.38.56-.21.51-.57a1.1,1.1,0,0,0,.49-.09c.24-.11.29-.22,0-.68l.28-.21-.32-.42h0l-.06-.07-.57-.76,0,0-.11-.17c-.14.16-.18.39-.35.46a.48.48,0,0,0-.68.19l-.18.14a6.57,6.57,0,0,1-.67.51c-.13.07-.37,0-.37.27a.36.36,0,0,0,0,.1,2.6,2.6,0,0,0-.53.65l-.14.11-.12-.07c-.55-.35-.72-.33-.94-.09-.49.56-1.56.46-1.6,1.58l0,.61-.93.69c-.11,0-.19-.05-.18.07-.71-.88-1.07-.28-1.09.05a1.88,1.88,0,0,0,.12.18,4.51,4.51,0,0,1-.38.42l-1.13.84,1.15.83a.33.33,0,0,1,.15.34c.19-.13.33-.16.51-.29l.23.17a5.64,5.64,0,0,0-.34,1c.53-.62.77-.46.9-.35s.1.18.18.26l-.08.13c0,.13.14.13.23.17l-.06.06c0,.17.23.1.54-.26l.07.05c0,.27-.12.61,0,.72s.46,0,.65,0a.54.54,0,0,0,.31,0l.69.49c.06.46.36.51.63.71s.25.33.56.15h0l2,1.43Zm-.7-8.31.17-.12,0,0Zm.69-.28h0Z" transform="translate(-651.51 -343.25)"/><path d="M693.47,397.78l.4-.25a1.31,1.31,0,0,0,.24.17c.4.25.39-.14.49-.4l.15-.32,1.41-.88c.15.1.34.27.42.26s0-.32.08-.43c.29-.62,1.38.2,1.59-.48a1.83,1.83,0,0,1,.53-.95l.28-.22,1.23-.76.34,0c.39,0,.45-.43.64-.65l.18-.11h0l.77-.12-.71-1.34a.34.34,0,0,1,0-.12c0-.13,0-.42-.08-.47s-.22,0-.31,0a.27.27,0,0,0-.11-.16c0-.2.07-.41-.19-.42a2.12,2.12,0,0,1-.26.26h0c0-.15,0-.28.09-.45l-.22.14c.15-.45,0-.71-.38-.45a.2.2,0,0,0-.1-.12c-.13-.07-.36.06-.55.12l0,0c0-.19-.12-.31.12-.81l-.18.11c0-.31-.35-.37-.78,0h0c0-.05,0-.1-.05-.16.13-.43,0-.53-.18-.48a.44.44,0,0,0-.17-.16c-.35-.16-.71-.33-1.07-.53a.24.24,0,0,1-.08-.06c0-.12,0-.24-.13-.29a.22.22,0,0,0-.18,0,.66.66,0,0,0-.72-.22h0l-.08-.21.13-.17c-.15,0-.33,0-.39-.13a1.43,1.43,0,0,1,.11-.15c-.23.11-.19-.06.12-.43-.1.08-.22.08-.32.16.25-.5-.37-.5-.71-.36a1.21,1.21,0,0,0-.24-.45c-.19-.21-.31-.23-.66.21l-.29-.22-.32.42h0l-.05.08-.57.76h0l-.12.16c.2.09.43.07.55.22a.52.52,0,0,0,.4.62l.19.13a7.17,7.17,0,0,1,.71.52c.11.11.15.36.38.3l.09,0a3,3,0,0,0,.8.34l.15.11,0,.13c-.17.64-.1.81.2.95.7.34.94,1.41,2,1.16l.62-.12,1,.73c0,.12,0,.2.12.17-.65.92.06,1.12.39,1.05,0-.05.08-.11.13-.17l.13.06.08-1.84c-.18.19-.45.51-.73.33,0,.22,0,.37.08.58l-.26.16a6.15,6.15,0,0,0-.77-.68c.37.74.12.91,0,1s-.21,0-.32.07l-.09-.11c-.13,0-.18.08-.25.15l0-.08c-.19,0-.2.18,0,.6l-.07.05c-.25-.11-.53-.33-.68-.25s-.17.45-.28.61a.47.47,0,0,0-.1.3l-.76.47c-.46-.11-.63.15-.92.33s-.42.12-.38.47v0l-2.19,1.36Zm1.85-11.1-.17-.13,0,0Zm-.48-.6h0v0Z" transform="translate(-651.51 -343.25)"/><path d="M658.38,344.83l6.27,0c.48.09,1,.17,1.6.25a41.37,41.37,0,0,0,8.4,0l3.86-.18H693l-.87-.87v8a18.91,18.91,0,0,0-.44,3,21,21,0,0,0,.24,3.05l.06.56.25.2a8.71,8.71,0,0,1,.72.61,74.19,74.19,0,0,1,5.3,5.37l.25.29.49,0c4.39.22,8.58.62,13,.44L710.52,364l.06,1.08c.28,4.43.49,8.32.53,12.9,0,1.59,0,3.21,0,4.83v19.56c-.07,1.25-.14,2.5-.21,3.7-.22,4.26.12,8.15.21,11.93l.25-.62-.06.06-2,2c-.44.42-.88.82-1.33,1.22l-1.85,1.54.83-.34c-.79-.07-1.62-.13-2.3-.12-1,0-2,.17-3,.22s-1.71-.06-2.52-.06a31.15,31.15,0,0,0-5.49-.23c-.06.16-.42.25-.63.37l-.5,0c-.86-.13-1.82-.25-2.64-.41-.43.07-.84.16-1.24.25a22.55,22.55,0,0,0-7.84-.13c-.68,0-1.37,0-2.1,0a47.34,47.34,0,0,0-5,.43h-.68a20.2,20.2,0,0,1-5.34-.73l-1,.2c-2-.28-6.72-.09-8,.51h-.18l-.55,0,.71.33-.74-1a19.93,19.93,0,0,0-3.57-4.73l-.41-.51.3.82c0-.78,0-1.6,0-2.47q-.1-7.69-.21-15.83v-1.47c.08-1.2.17-2.4.16-3.65,0-.79,0-1.46-.1-2.08a89.86,89.86,0,0,0-.26-9.53v-.15l.12-2.55c.07-.08.14,0,.21-.1-.08-1.64-.2-3.42-.13-5.19,0-.21.16,0,.19,0-.23-1.69-.06-2.56.41-2.25-.12-.48-.19-1.63-.31-2.16.54-1.32.17-8.1-.14-10.6.1-2.08.19-4.15.21-6.23,0-1.1,0-2,0-2.72l-.33.92c1-1.28,1.4-2,1.22-2.37l3-3.68-.23-.48.07-.07h-.11l-.4-.85-.22.25a1.57,1.57,0,0,1,0-.23c-1.9,2.25-3.34,4.17-4.94,6.05l-.16.2v.63a68,68,0,0,0-.26,9.35c0,1,0,2,0,3.17,0,3.95.05,7.91,0,11.87,0,2.09-.19,4.5,0,6.52,0,.25.06.46.1.69,0,3.82.08,7.62.2,11.47V396l-.12.73a43.38,43.38,0,0,0-.64,9.9c.05,3.39,0,6.9,0,10.44v.52l.35.44,4.93,6.05.47.57H658c4.55,0,9-.06,13.27-.43l5.69-.46h16.45a11.71,11.71,0,0,0,2.66.06c.39.95,7,.91,10.93.72l.68,0,.36-.4c.5-.54.91-1,1.22-1.38,0-.14-.11-.09-.08-.22l3.57-3.69.32-.33V418a62.24,62.24,0,0,1,.16-7.39c-.21-1.1-.32-2.42-.53-3.36v-4.11a25.61,25.61,0,0,0,1-3.93c-.81-1.08-.82-5.14-.81-7.45,0-1.05.07-2.68.12-4.25,0-.11.09-.18.14-.16.09-1.37,0-2.64,0-4a1.59,1.59,0,0,1,.08.22c.11-2-.05-3.57-.52-4.15v-1.18a55.14,55.14,0,0,0,.58-6c0-2.45-.3-5.1-.37-7.62,0-.26,0-.5,0-.59l0-.9-.83,0c-1.21,0-2,.1-2.76.18H699l.49.2-1.25-1.25c-1.52-1.78-3-3.34-4.58-4.92l.27.66c0-2,0-4,0-6.29a60.46,60.46,0,0,0-.2-7.68v0l-.13-.79-.57.09h0l-35.24.06Zm-4.5,27.65v-2.89l.06-.08Zm.19-10.14v0l0-.25Z" transform="translate(-651.51 -343.25)"/><path class="cls-1" d="M693,344" transform="translate(-651.51 -343.25)"/><path d="M692.48,344.48l.45.48c0,.1-.06.2-.08.3-.11.51.33.49.66.61l.43.16,1.63,1.74c-.06.19-.17.42-.11.53s.36,0,.52.08c.82.34.36,1.72,1.23,2a2.87,2.87,0,0,1,1.31.63c.13.11.25.23.37.35l1.4,1.49.12.43c.14.48.68.54,1,.78l.2.21a.59.59,0,0,1,.07.2c0,.16,0,.49.09.59s.27,0,.38.08a.74.74,0,0,0,.14.23c0,.24-.08.46.23.58a2.13,2.13,0,0,1,.31-.21l0,0a4.68,4.68,0,0,1-.11.48l.27-.07c-.18.46,0,.82.47.68a.35.35,0,0,0,.12.19c.15.13.43.08.67.09l.05,0a1,1,0,0,1-.15.91l.22-.06c-.06.34.42.57,1,.26v0l.06.2c-.17.46-.05.61.22.65a.79.79,0,0,0,.2.25c.43.34.87.69,1.3,1.07a1.14,1.14,0,0,1,.11.11.74.74,0,0,0,.14.39.43.43,0,0,0,.22.09,1.18,1.18,0,0,0,.88.55h0c0,.09.06.19.1.28a1.06,1.06,0,0,0-.15.15c.18.07.39.12.47.3s-.12.11-.14.14c.29,0,.23.15-.14.45.12-.05.26,0,.39-.05-.31.48.45.74.86.72a2.08,2.08,0,0,0,.29.62c.23.33.38.41.8,0l.36.38.38-.36h0l.07-.07.69-.65,0,0,.15-.12c-.24-.2-.52-.28-.67-.5a.91.91,0,0,0-.49-.89l-.23-.24c-.28-.3-.6-.57-.86-.9s-.18-.48-.46-.51h-.11a5.52,5.52,0,0,0-1-.74l-.18-.19,0-.14c.21-.67.13-.89-.24-1.19-.85-.69-1.14-2-2.49-2.21l-.74-.12L704,354.53c0-.14,0-.24-.15-.25.79-.8-.07-1.33-.47-1.39a2,2,0,0,0-.16.14c-.26-.23-.94-.61-.84-1-.24.07-.41,0-.63.11l-.3-.31a4.75,4.75,0,0,0,.44-1c-.68.48-1,.17-1.13,0s-.13-.27-.22-.41a.44.44,0,0,1,.09-.11c0-.17-.17-.22-.28-.31a.29.29,0,0,1,.08,0c-.07-.23-.3-.24-.68,0l-.09-.09c0-.32.14-.67,0-.86s-.58-.19-.82-.33a.72.72,0,0,0-.39-.11l-.86-.92c-.07-.58-.44-.78-.78-1.14-.17-.18-.31-.51-.7-.46h0l-2.51-2.67Zm16.72,17.84.21.22,0,0Zm.59.91h0v0Z" transform="translate(-651.51 -343.25)"/></svg>