<svg id="Ebene_1" data-name="Ebene 1" xmlns="http://www.w3.org/2000/svg" viewBox="0 0 61 81"><defs><style>.cls-1{fill:none;stroke:#000;stroke-miterlimit:10;stroke-width:2px;}</style></defs><polyline class="cls-1" points="9 8 6 12 6 70 10 75 51 75 55 70 55 37"/><line class="cls-1" x1="37" y1="34" x2="25" y2="58"/><path class="cls-1" d="M674.1,360.9" transform="translate(-652.1 -317.9)"/><path class="cls-1" d="M674.1,360.9" transform="translate(-652.1 -317.9)"/><polyline class="cls-1" points="22 43 14 49 21 54"/><polyline class="cls-1" points="41 43 49 49 41 54"/><polygon class="cls-1" points="6 1 1 7 1 74 6 80 55 80 60 75 60 68 60 21 47 21 41 15 41 1 6 1"/><path class="cls-1" d="M693.1,318.9" transform="translate(-652.1 -317.9)"/><line class="cls-1" x1="60" y1="21" x2="41.11" y2="0.84"/></svg>