<svg id="Ebene_1" data-name="Ebene 1" xmlns="http://www.w3.org/2000/svg" viewBox="0 0 76.54 81"><defs><style>.cls-1{fill:none;}.cls-1,.cls-2{stroke:#000;stroke-miterlimit:10;stroke-width:2px;}</style></defs><g id="Head"><path class="cls-1" d="M661.46,398.91v-11c-9-18-14-18-16-34-1-3,2.88-35.33,33-35s32,31,32,31,9.79,12,9.39,13.5-8.39,6-8.39,6c-1.5,7.47,1,13.49-3,18.49-4,2.48-15,2-15,2v9" transform="translate(-644.33 -317.9)"/><line class="cls-1" x1="38.14" y1="21" x2="31.14" y2="44"/><polyline class="cls-1" points="48.14 26 52.14 34 48.14 41"/><polyline class="cls-1" points="18.14 26 14.14 34 18.14 41"/><rect class="cls-2" x="21.14" y="33" width="2" height="2"/><rect class="cls-2" x="26.14" y="33" width="2" height="2"/><rect class="cls-2" x="39.14" y="33" width="2" height="2"/><rect class="cls-2" x="44.14" y="33" width="2" height="2"/></g></svg>