<svg id="Ebene_1" data-name="Ebene 1" xmlns="http://www.w3.org/2000/svg" viewBox="0 0 136.97 72.6"><g id="Mail"><path d="M654.8,348.16a19.55,19.55,0,0,0-.1,2.31v6c0,.56-.09,1.19-.14,1.92-.21,3.61,0,6.93,0,10.77,0,1.66.06,3.32.1,5v28.56c-.09,1.22-.21,2.35-.22,3.75,0,1.9.12,3.2.16,5,.05,2.77,0,5.42,0,8V420h.5c6.54.1,12.68.38,19.27.22,5.59-.15,10.51-.25,16.28-.27h30.77l4.66.1c5.41.11,10.35-.06,15.16-.1h3.52l2.26,0,3.06.11.57,0,0-.61c0-1,.06-2,.06-2.87,0-1.26-.09-2.55-.11-3.79l0-3.19c.07-2.38.18-3.37.11-6.92a3.47,3.47,0,0,1-.19-.8v-.63c.06-1.09.14-2.29.2-3.32,0-.55-.08-1.07-.12-1.57a72.1,72.1,0,0,0,.06-9.89c0-.85,0-1.73,0-2.64,0-2.38-.13-4.23-.21-6.25v-.86a61.3,61.3,0,0,1,.36-6.74c0-.45-.07-.88-.1-1.31a73,73,0,0,0-.25-10.08v-.23c0-.77,0-1.5.05-2.24a65,65,0,0,0,.14-7.47v-.83h-4.41l-20.05.11h-1.87c-1.53,0-3.06-.08-4.65-.08l-2.61.05c-4.15,0-8.3,0-12,.15h-.2l-3.25-.05c-.12,0,0-.07-.16-.1-2.07,0-4.29.1-6.56.07-.27,0,0-.07-.06-.08-2.09.1-3.23,0-3-.18-.57.06-2,.09-2.66.15-1.81-.23-10.32,0-13.39.1l-8-.06c-4.73,0-6.67,0-6.73.23h-6.28l.19.19H655l.16,0,.34.33h.41s0,0,0,.06l9.78,0c3.79.13,7.76.15,11.84.13h4l14.91,0c2.64,0,5.7.1,8.2,0l.85,0c4.79,0,9.57,0,14.39-.08H723l.93.06c4.28.3,6.82.35,12.47.32,4.46,0,9.08,0,13.73,0l-.75-.75c-.05,8.81-.11,17.75.18,26,.08,2.51.15,4.82.23,7.18v20.75c-.06,1.07-.08,2.17,0,3.35-.48.49-.46,8.86-.37,13.76l.74-.74-2.35.06c-.16,0,0,.07-.12.11-4.11,0-13,.13-15.8,0-1.39.11-3.06.16-4.24.27h-5.19c-1.69-.17-2.86-.4-4.95-.5-1.36.41-6.48.42-9.4.41L702.7,419c-.13,0-.22,0-.2-.07-1.73,0-3.33,0-5.06,0l.28-.05a22.67,22.67,0,0,0-5.24.27H691c-2.65-.12-4.63-.28-7.58-.29s-6.45.15-9.62.18c-1.85,0-3.07.06-4.22.11H655.13l.35.34v-.72c.17-5.6.1-10.41.1-16.4,0-3,.06-7-.1-9.69V351.22a18.29,18.29,0,0,0-.12-2.51Zm38.28-.08h-3.66l-.13,0ZM680.19,348h0Z" transform="translate(-614.11 -347.63)"/><path d="M703.1,389l-3.91-3.44-.93-1a67,67,0,0,0-5.27-4.58l-2.44-2-14-12.25c-.56-.6-1.06-1.19-1.74-1.8-.92-.83-1.62-1.26-2.53-2-4.86-4-8.57-8.1-13.21-11.83L656.5,348l-.39,1c2.38-.07,4.7-.12,7.28-.14H683.5l3,.1c3.54.11,6.77-.06,9.91-.1h2.3l1.48,0c1.06.05,2.73.17,3.87.17.83,0,1.67-.09,2.48-.11l2.09,0a42.28,42.28,0,0,0,4.52.11c0-.08.35-.13.52-.19h.41c.71.06,1.5.12,2.18.2l1-.12a30.9,30.9,0,0,0,6.47.06c.55,0,1.12,0,1.72,0,1.55,0,2.77-.13,4.08-.21h.57a26.31,26.31,0,0,1,4.4.36l.86-.1a31.33,31.33,0,0,0,6.59-.25h.15l1.46.05a27.89,27.89,0,0,0,4.89.14h.59l-.43-1.12-1.47,1.31L737.6,358l-.89.8c-.76.62-1.51,1.24-2.28,1.93-.47.42-.87.81-1.24,1.17-2,1.77-4,3.56-5.77,5.33l-.09.08-1.58,1.34c-.06,0,0-.09-.1-.05-1,.94-2,2-3.14,2.91-.14.1,0-.1,0-.09-1,1-1.56,1.43-1.44,1-.27.31-1,1-1.27,1.33a69.7,69.7,0,0,0-6.44,5.87q-1.91,1.62-3.81,3.3c-2.27,2-3.2,2.89-3.31,3.28l-3,2.72v.26l-.06.06h.06v.47l.2-.18a.39.39,0,0,1,0,.14c1.82-1.63,3.27-3,4.84-4.37,1.83-1.43,3.79-3.17,5.81-5l2-1.75,7.35-6.52c1.3-1.14,2.83-2.39,4.05-3.59l.41-.42q3.54-3.17,7.06-6.4l1.55-1.38.48-.35a58.64,58.64,0,0,0,6.31-5.19c2.08-1.89,4.26-3.79,6.46-5.72l1.47-1.29-2,0c-5.91-.05-11.92-.11-17.43.18l-4.69.23H713.42a14.42,14.42,0,0,0-2.19,0c-.38-.57-8-.43-10.53-.31-.11,0,0,.07-.08.11-2.69,0-8.51.13-10.32,0-.91.11-2,.16-2.78.27h-3.39a32.37,32.37,0,0,0-3.24-.5c-.89.41-4.23.42-6.14.41l-3.5-.06c-.09,0-.15,0-.13-.07-1.13,0-2.18,0-3.31,0l.18-.05a9.76,9.76,0,0,0-3.42.27h-1c-1.73-.12-3-.28-5-.29-.82,0-1.67,0-2.53.05l-1.57.06,1.19,1c1,.79,2,1.58,2.93,2.38s1.56,1.28,2.16,1.74l7.49,6.54c2.69,2.56,5.11,4.58,8.08,7.16,1.46,1.28,3.46,3.08,4.83,4.09l.06,0,21.82,19Zm18.5-16.58L719.83,374l-.06,0Zm-6.22,5.46h0l-.16.14Z" transform="translate(-614.11 -347.63)"/><path d="M695.7,383.36l-1,.86a2.85,2.85,0,0,0-.32.1,3.52,3.52,0,0,0-1.3,1.19c-.18.21-.37.41-.55.61L689,389.2a1.94,1.94,0,0,0-.6.24c-.25.19-.31.44-.51.66-1.08,1.19-2.52,1.61-3.51,2.78a19.64,19.64,0,0,1-1.82,1.95c-.25.22-.5.44-.74.67l-3,2.66-.64.43a12.29,12.29,0,0,0-1.8,1.71l-.43.37-.31.22a6.07,6.07,0,0,0-.84.51,6,6,0,0,0-.39.49c-.15.11-.29.21-.42.32a3,3,0,0,0-.92.66.45.45,0,0,1,0,.23l-.07.07c-.18.07-.36.16-.54.21s-.08.17-.12.26a2,2,0,0,0-1.25,1,2.88,2.88,0,0,0-.34.27,4,4,0,0,0-.63.83l-.11.1a2,2,0,0,1-1.06.45c0,.07-.07.15-.1.21-.4.17-1.07.89-1.07,1.28l0,0-.31.2a1.79,1.79,0,0,0-1,.7,4.75,4.75,0,0,0-.49.42c-.77.73-1.56,1.47-2.39,2.23l-.23.2a6.37,6.37,0,0,0-.62.44,2.1,2.1,0,0,0-.29.32,8,8,0,0,0-1.39,1.39l0,0-.44.31s0-.06-.08-.07a5.46,5.46,0,0,1-.76.76s-.05-.07-.07-.07c-.19.31-.38.37-.49.15,0,.11-.19.29-.23.41-.38,0-1.31,1-1.6,1.49-.35.25-.7.5-1,.77-.59.49-.81.72-.66.95l-.77.68.17.2h0l0,0,.32.36,0-.05.05.09c.44-.42.76-.8,1.16-1.12a5.91,5.91,0,0,0,1.54-1.18l.49-.43c.61-.54,1.21-1.1,1.84-1.62a5.7,5.7,0,0,0,1-.88.46.46,0,0,0,.08-.13c.59-.53,1.15-1.07,1.71-1.64l.39-.34.15-.05a3.89,3.89,0,0,0,1.75-1.11c1.55-1.45,3.53-2.72,4.8-4.4l.73-.94,2.55-2.24a1,1,0,0,0,.43-.34c.45.36,1.8-1,2.19-1.51,0,0,0-.05-.06-.09a11.83,11.83,0,0,1,2-1.67c.1-.23.27-.45.35-.66l.64-.56a3.43,3.43,0,0,0,.93-.16c-.1-.46.52-1,.89-1.32.16-.14.44-.33.7-.54,0,0,0,0,.07,0a4.07,4.07,0,0,0,.62-.55v.07c.34-.23.53-.51.47-.77l.18-.16a4.93,4.93,0,0,0,1.13-.6c.38-.32.69-.8,1.06-1.17a4.24,4.24,0,0,0,.45-.54l1.86-1.63a13.12,13.12,0,0,0,2.09-1.69,5.46,5.46,0,0,0,1.13-1.12h0l5.42-4.76ZM659.54,415l-.45.39h0Zm-1.64,1.31h0l0,0Z" transform="translate(-614.11 -347.63)"/><path d="M709.65,384l1,.86a1.66,1.66,0,0,0,.14.31,3.5,3.5,0,0,0,1.33,1.13l.67.47,3.45,3.07a1.76,1.76,0,0,0,.31.57c.22.22.47.25.71.43,1.3.9,1.89,2.28,3.16,3.1a18.84,18.84,0,0,1,2.14,1.56l.75.64,3,2.66c.16.2.33.39.49.58a13.29,13.29,0,0,0,1.9,1.56l.43.38.25.27a6.15,6.15,0,0,0,.6.77c.16.13.37.21.54.33l.36.36a2.7,2.7,0,0,0,.76.83c.07-.05.15,0,.22-.05l.09.06c.08.17.19.34.26.51l.27.08a2,2,0,0,0,1.16,1.11,2.13,2.13,0,0,0,.3.3,4.63,4.63,0,0,0,.9.52l.11.09a2,2,0,0,1,.57,1l.22.06a2.1,2.1,0,0,0,1.39.9l0,0,.24.27a1.7,1.7,0,0,0,.81.91c.14.15.3.29.47.44q1.22,1,2.49,2.07l.22.2a4.43,4.43,0,0,0,.51.55,1.52,1.52,0,0,0,.35.25,7.54,7.54,0,0,0,1.54,1.2l0,0,.35.39s0,.05,0,.09a4.3,4.3,0,0,1,.83.66s0,.05-.06.07c.34.15.41.33.21.46.11,0,.31.15.43.18,0,.38,1.18,1.16,1.67,1.39.28.32.57.63.88.93.55.52.8.71,1,.53l.76.67.17-.19h0s0,0,0-.05l.32-.35-.05,0a.23.23,0,0,1,.07-.07c-.46-.38-.87-.64-1.24-1a5.8,5.8,0,0,0-1.34-1.37c-.16-.13-.31-.27-.49-.43-.6-.54-1.22-1.06-1.81-1.61a6.87,6.87,0,0,0-1-.89l-.14-.06c-.59-.51-1.19-1-1.82-1.48l-.38-.34a1,1,0,0,1-.07-.15,3.86,3.86,0,0,0-1.3-1.58c-1.62-1.34-3.11-3.14-4.91-4.18-.36-.2-.69-.4-1-.6l-2.51-2.24a1,1,0,0,0-.39-.38c.3-.48-1.2-1.65-1.75-2,0,0,0,.05-.08.06a11.17,11.17,0,0,1-1.89-1.73c-.24-.07-.48-.21-.69-.26l-.63-.56a3.09,3.09,0,0,0-.27-.9c-.44.16-1.06-.39-1.41-.71-.15-.14-.38-.4-.61-.62a.08.08,0,0,1,0-.07,4.52,4.52,0,0,0-.61-.55h.06c-.27-.31-.56-.47-.81-.37l-.18-.16a4.78,4.78,0,0,0-.73-1c-.36-.34-.87-.58-1.28-.9a4.08,4.08,0,0,0-.58-.37L718.67,391a12.86,12.86,0,0,0-1.91-1.84,5.2,5.2,0,0,0-1.24-1h0l-5.34-4.75Zm35.55,31.67.44.4v0Zm1.49,1.45h0l0,0Z" transform="translate(-614.11 -347.63)"/><path d="M645.11,367h-.5l-.13-.14c-.22-.21-.43,0-.68,0l-.31.1h-1.81c-.08-.09-.15-.21-.24-.23s-.2.13-.31.17c-.62.18-1.15-.46-1.73-.22a3.13,3.13,0,0,1-1,.26l-.38,0h-1.56l-.3-.11a2,2,0,0,0-1,.11H635l-.14-.05c-.11,0-.27-.17-.38-.16s-.16.08-.24.11l-.2,0c-.15-.06-.21-.18-.44-.11a.53.53,0,0,1,0,.19h0l-.21-.21-.1.12a.37.37,0,0,0-.62-.06.5.5,0,0,0-.17,0,.89.89,0,0,0-.4.22h-.05a.63.63,0,0,1-.43-.37l-.08.1a.45.45,0,0,0-.64.26h0l-.14,0c-.17-.22-.32-.23-.48-.14a.69.69,0,0,0-.25,0c-.41,0-.83.08-1.26.1h-.12a.73.73,0,0,0-.29-.07.42.42,0,0,0-.16,0,1.19,1.19,0,0,0-.76.14h0a1.17,1.17,0,0,0-.2-.06s0-.08,0-.11a.83.83,0,0,1-.41.07s0-.08,0-.1-.21,0-.18-.21c0,.07-.13.1-.18.16-.1-.27-.64-.09-.84.07a3,3,0,0,0-.5-.11c-.3,0-.42,0-.43.29h-.4v.26h0a.06.06,0,0,1,0,0v.48h0a.31.31,0,0,0,0,.1,2.85,2.85,0,0,1,.62-.08,1,1,0,0,0,.75.13h.25c.32,0,.63,0,1,0,.17,0,.36.1.52,0l0-.05a7.19,7.19,0,0,0,.92-.1h.2l.06.06a.78.78,0,0,0,.79.32c.82-.08,1.72.28,2.51-.15.16-.09.31-.16.46-.23h1.31c.07.05.14.08.21,0,0,.56.78.43,1,.3,0,0,0-.07,0-.11.26,0,.82-.13,1,0,.09-.1.19-.16.27-.26h.32a2.31,2.31,0,0,0,.32.49.5.5,0,0,1,.59-.41c.09,0,.22.05.34.06a.09.09,0,0,1,0,.07.58.58,0,0,0,.32,0,.09.09,0,0,1,0,.05c.16.05.28,0,.33-.26h.09c.17.11.3.27.48.28s.41-.14.61-.18a.85.85,0,0,0,.27-.1h1a2.11,2.11,0,0,0,1,.1c.19,0,.45.06.62-.1h2.79Zm-18.58,0h-.23v0Zm-.81-.1h0Z" transform="translate(-614.11 -347.63)"/><path d="M645.11,383h-.74l-.18-.14c-.34-.21-.65,0-1,0l-.46.1h-2.67c-.12-.09-.22-.21-.35-.23s-.3.13-.47.17c-.91.18-1.69-.46-2.55-.22a6.54,6.54,0,0,1-1.52.26l-.57,0h-2.3l-.44-.11a4.11,4.11,0,0,0-1.41.11h-.33l-.21-.05a2.12,2.12,0,0,0-.56-.16,1.75,1.75,0,0,0-.35.11l-.3,0c-.22-.06-.31-.18-.64-.11a.54.54,0,0,1-.08.19h-.06c-.1-.07-.21-.13-.31-.21l-.14.12a.73.73,0,0,0-.93-.06,1,1,0,0,0-.24,0,1.5,1.5,0,0,0-.59.22h-.08a.91.91,0,0,1-.63-.37l-.12.1a.79.79,0,0,0-.94.26h0l-.21,0a.62.62,0,0,0-.7-.14,1.51,1.51,0,0,0-.37,0c-.6,0-1.22.08-1.86.1h-.18a1.55,1.55,0,0,0-.43-.07.86.86,0,0,0-.24,0,2.5,2.5,0,0,0-1.12.14h0c-.1,0-.2,0-.3-.06s0-.08,0-.11a1.79,1.79,0,0,1-.61.07s0-.08,0-.1c-.2.11-.3,0-.26-.21-.06.07-.19.1-.26.16-.15-.27-1-.09-1.24.07a6.29,6.29,0,0,0-.74-.11c-.44,0-.62,0-.64.29h-.59v.26h0a.06.06,0,0,1,0,0v.48h0a.38.38,0,0,1,0,.1,6.36,6.36,0,0,1,.92-.08,2,2,0,0,0,1.11.13h.37c.46,0,.93,0,1.4,0a2,2,0,0,0,.76,0l.09-.05c.45,0,.89-.05,1.35-.1h.29l.09.06a1.42,1.42,0,0,0,1.16.32c1.21-.08,2.54.28,3.72-.15.23-.09.45-.16.67-.23H628a.36.36,0,0,0,.32,0c0,.56,1.15.43,1.5.3,0,0,0-.07,0-.11a4,4,0,0,1,1.48,0c.13-.1.28-.16.39-.26h.49c.16.16.27.39.46.49.13-.41.61-.42.88-.41s.31.05.5.06a.19.19,0,0,1,0,.07,1.24,1.24,0,0,0,.47,0s0,0,0,.05a.37.37,0,0,0,.49-.26h.14a2,2,0,0,0,.71.28,6,6,0,0,0,.9-.18,1.46,1.46,0,0,0,.39-.1h1.42a4.58,4.58,0,0,0,1.53.1,1.75,1.75,0,0,0,.91-.1h4.12Zm-27.43,0h-.35v0Zm-1.2-.1h0Z" transform="translate(-614.11 -347.63)"/><path d="M645.11,400h-.53l-.13-.14c-.23-.21-.46,0-.71,0l-.33.1h-1.89c-.08-.09-.16-.21-.25-.23s-.21.13-.33.17c-.65.18-1.2-.46-1.81-.22a3.48,3.48,0,0,1-1.08.26l-.4,0H636l-.31-.11a2.09,2.09,0,0,0-1,.11h-.23l-.16-.05c-.1,0-.27-.17-.39-.16s-.17.08-.25.11l-.21,0c-.16-.06-.22-.18-.46-.11a.53.53,0,0,1,0,.19h0a1.47,1.47,0,0,1-.22-.21l-.11.12a.4.4,0,0,0-.65-.06.55.55,0,0,0-.18,0,.87.87,0,0,0-.41.22h-.06a.64.64,0,0,1-.45-.37l-.08.1a.48.48,0,0,0-.67.26h0l-.14,0c-.18-.22-.33-.23-.5-.14a.75.75,0,0,0-.26,0c-.43,0-.87.08-1.32.1h-.13a.82.82,0,0,0-.3-.07.53.53,0,0,0-.18,0,1.29,1.29,0,0,0-.79.14h0a1.66,1.66,0,0,0-.21-.06s0-.08,0-.11a.89.89,0,0,1-.43.07s0-.08,0-.1-.22,0-.19-.21c0,.07-.14.1-.18.16-.11-.27-.68-.09-.89.07a3,3,0,0,0-.52-.11c-.31,0-.44,0-.45.29h-.42v.26h0a.06.06,0,0,1,0,0v.48h0s0,.06,0,.1a3.2,3.2,0,0,1,.65-.08,1,1,0,0,0,.79.13h.26c.33,0,.66,0,1,0,.18,0,.38.1.55,0l.06-.05a7.65,7.65,0,0,0,.95-.1h.21l.06.06a.85.85,0,0,0,.83.32c.86-.08,1.8.28,2.64-.15.16-.09.32-.16.47-.23H633a.18.18,0,0,0,.22,0c0,.56.82.43,1.07.3,0,0,0-.07,0-.11.27,0,.86-.13,1,0a3.58,3.58,0,0,0,.28-.26H636c.11.16.19.39.33.49a.52.52,0,0,1,.62-.41c.09,0,.22.05.35.06a.19.19,0,0,1,0,.07.62.62,0,0,0,.33,0s0,0,0,.05c.17.05.3,0,.35-.26h.1c.18.11.31.27.5.28a3.07,3.07,0,0,0,.64-.18.91.91,0,0,0,.28-.1h1a2.37,2.37,0,0,0,1.09.1c.2,0,.47.06.64-.1h2.93Zm-19.47,0h-.24v0Zm-.85-.1h0Z" transform="translate(-614.11 -347.63)"/></g></svg>