<svg id="Ebene_1" data-name="Ebene 1" xmlns="http://www.w3.org/2000/svg" viewBox="0 0 92.78 94.51"><g id="lUPE"><path d="M703.43,374.12a34.29,34.29,0,0,0-.38-4.64c.05-.34.07-.72.09-1.16a9.7,9.7,0,0,0-.55-3.09c-.33-1-.87-1.93-1.31-3-.45-.87-1-1.71-1.42-2.55a31,31,0,0,0-11.32-12,6.75,6.75,0,0,0-1.7-1.46,6.6,6.6,0,0,0-1.41-.55c-.45-.14-.9-.25-1.42-.39-.69-.2-1.35-.42-2-.66s-1.31-.37-2-.57c-1.27-.45-2.57-.68-3.86-1a16.12,16.12,0,0,0-2-.3,18.91,18.91,0,0,0-2-.18c-.66,0-1.33,0-2,.08-.34,0-.68,0-1,.09l-1,.22a38.35,38.35,0,0,0-9,3.25c-.52.27-1.06.5-1.58.8l-1.52.94a30.33,30.33,0,0,0-10,10.18l-.8,1.13-.68,1.18a17.93,17.93,0,0,0-1.75,4.24c-.18.71-.3,1.44-.44,2.14l-.21,1.05-.12,1.05-.3,2c0,.44-.09.88-.16,1.32s-.18,1.08-.29,1.7a12.19,12.19,0,0,0,0,1.78,12.49,12.49,0,0,0,.41,2.21c.06.65.13,1.27.22,1.87a14.64,14.64,0,0,0,.18,1.78,9,9,0,0,0,.62,2.23c.17,0,.35.22.51.32l.15.35c.1.65.21,1.36.31,2,.21.26.42.5.63.74a8.94,8.94,0,0,0,2.84,5.09c.27.42.57.84.9,1.27A8.33,8.33,0,0,0,649.5,395c.47.38.91.75,1.39,1.1l.37.34c.53.56,1,1.07,1.44,1.58a7.28,7.28,0,0,1,1.14,1.52l.75.31a10.18,10.18,0,0,0,2.67,1.76,6.49,6.49,0,0,0,2.74.72l.12.06a9.9,9.9,0,0,0,1.18.58,9.41,9.41,0,0,0,2,1.11,12.09,12.09,0,0,0,2.12.46,11.47,11.47,0,0,0,2.29.46,32.16,32.16,0,0,0,11.69-.58l1.05-.27,1.34-.23c.43-.11.87-.26,1.31-.42a12.83,12.83,0,0,0,1.41-.62,29.55,29.55,0,0,0,3.24-1.6c.5-.32,1-.65,1.46-1l.69-.51.62-.58.09-.07,1.58-1c.09,0,.07.13.19.12l1.32-1.36c.47-.46.94-.91,1.39-1.39.12-.1.11.13.15.13.68-1.09,1.23-1.46,1.45-1,.16-.33.62-1.08.76-1.47a7.39,7.39,0,0,0,2.25-2.87l.59-1.09c.16-.38.3-.76.43-1.11.27-.72.48-1.35.61-1.8a25.77,25.77,0,0,0,1.66-4.36,14.07,14.07,0,0,0,.43-1.74,12.22,12.22,0,0,0,.13-1.24c0-.66-.08-1-.35-1.1.17-1.21.16-2.43.24-3.65h-.53v-.08a.39.39,0,0,1-.1.08h-.94v.22a.73.73,0,0,1-.2-.05c0,1,0,1.94,0,2.83s-.2,1.73-.35,2.6c-.38,1-.75,2-1,3s-.71,2.08-1.16,3.11c-.3.62-.61,1.26-.95,2a29.9,29.9,0,0,1-4.87,6.59c-1.06,1-2.38,2-3.42,2.94-.13.12-.22.24-.33.36a32,32,0,0,1-7,3.89,16,16,0,0,1-1.65.56h-.53c-1.21,0-2.13.08-3.16.1-.51,0-1,.09-1.63.17l-2,.12A26.14,26.14,0,0,1,663,400.86a45.45,45.45,0,0,1-9.37-5c-.56-.4-1.11-.78-1.64-1.17l-1.47-1.3a29.28,29.28,0,0,1-5.69-9.91,9.72,9.72,0,0,0-.46-1.8c.25-.15.32-.64.28-1.32s-.07-1.57-.21-2.49-.15-1.92-.26-2.8-.11-1.66-.16-2.18c-.06-.1-.13,0-.2-.08,0-.56,0-1.29.1-2.08s.2-1.65.33-2.49.41-1.62.61-2.3a6.78,6.78,0,0,1,.7-1.53c.06-.78.25-1.69.37-2.36a24.6,24.6,0,0,1,1.32-2.55c.38-.32.76-.55,1.13-.81a12.73,12.73,0,0,0,1.16-.93,3.55,3.55,0,0,1,.78-2.21,18.08,18.08,0,0,1,1.91-2.2c.56-.47,1.41-1.22,2.29-1.86.08,0,.15,0,.17,0,.83-.47,1.44-1.11,2.25-1.6a.44.44,0,0,1-.08.15,4.35,4.35,0,0,0,2.22-1.9l.74-.36c1.41-.49,2.56-.5,4.07-1,.81-.23,1.64-.49,2.48-.81a19.48,19.48,0,0,1,2.58-.65l.69-.15.59-.07c.38-.06.7-.11,1-.18a32.72,32.72,0,0,1,4.2.08c.69.07,1.38.2,2.08.3l1,.16,1,.27a41.67,41.67,0,0,1,8.24,3.67c.35.21.73.44,1.11.7l1.13.85c.38.28.77.54,1.13.79a10.6,10.6,0,0,0,1,.71l.06,0a29.71,29.71,0,0,1,7.12,9.82,29.21,29.21,0,0,1,2.52,11.87Zm-7.73,20.39.71-.79.64-.85.09,0-.69.86C696.21,394,696,394.25,695.7,394.51Zm4.4-6h0l.1-.17Z" transform="translate(-636.04 -336.38)"/><path d="M709.52,373.57a42.21,42.21,0,0,0-.46-5.51c0-.4.05-.85.06-1.36a13.17,13.17,0,0,0-.68-3.65c-.38-1.17-1-2.29-1.51-3.51-.51-1-1.11-2-1.65-3-.35-.74-.83-1.42-1.24-2.13a18.88,18.88,0,0,0-1.37-2.06l-1.48-2-1.65-1.83c-.29-.3-.55-.62-.85-.91l-.91-.83c-.62-.54-1.2-1.13-1.85-1.63a36.2,36.2,0,0,0-4-2.82,8.8,8.8,0,0,0-2.06-1.67,9.77,9.77,0,0,0-1.65-.66c-.52-.18-1-.33-1.67-.5-.81-.25-1.59-.51-2.36-.79s-1.55-.43-2.31-.67a43.76,43.76,0,0,0-4.58-1.14,19.74,19.74,0,0,0-2.31-.32,22.63,22.63,0,0,0-2.33-.19q-1.18,0-2.37.09c-.4,0-.8,0-1.19.11l-1.19.25a42.77,42.77,0,0,0-10.67,3.75c-.62.31-1.27.59-1.88.94l-1.8,1.11a36,36,0,0,0-11.84,12.07l-.94,1.34-.79,1.4a22.82,22.82,0,0,0-2.06,5c-.22.85-.37,1.7-.55,2.53l-.25,1.24-.15,1.24-.36,2.41c-.05.52-.1,1-.17,1.56s-.19,1.29-.31,2a18.79,18.79,0,0,0,0,2.1,15.25,15.25,0,0,0,.44,2.62c.08.76.17,1.5.28,2.2a15.13,15.13,0,0,0,.25,2.1,11.57,11.57,0,0,0,.73,2.64c.17,0,.36.27.54.4l.17.41c.14.75.29,1.59.44,2.32.23.32.47.6.7.89a12,12,0,0,0,3.38,6c.33.5.68,1,1.07,1.51a11.12,11.12,0,0,0,1.61,1.61c.54.46,1.05.91,1.61,1.33l.44.4c.63.67,1.22,1.26,1.72,1.85a10.38,10.38,0,0,1,1.42,1.72l.85.4a13.92,13.92,0,0,0,3.16,2.07,8.7,8.7,0,0,0,3.2.94l.14.07a12.73,12.73,0,0,0,1.4.67A13,13,0,0,0,662,409a17,17,0,0,0,2.51.56,13.88,13.88,0,0,0,2.7.54,37.89,37.89,0,0,0,13.83-.64l1.25-.32,1.57-.29c.51-.15,1-.32,1.54-.51a17.62,17.62,0,0,0,1.68-.72c.67-.26,1.31-.6,2-.9a17.6,17.6,0,0,0,1.88-1c.59-.38,1.17-.77,1.73-1.16l.83-.59.74-.67.11-.08,1.85-1.24c.11,0,.07.13.2.11l1.58-1.59c.56-.53,1.12-1.06,1.65-1.64.14-.12.1.13.15.13.84-1.26,1.47-1.72,1.65-1.21a19.39,19.39,0,0,0,1-1.7,9.86,9.86,0,0,0,2.62-3.42l.7-1.28c.19-.44.37-.89.53-1.3.32-.84.59-1.58.76-2.11a31,31,0,0,0,1.92-5.16,19.7,19.7,0,0,0,.51-2.06c.08-.59.14-1.07.16-1.46,0-.78-.06-1.17-.32-1.29a17.32,17.32,0,0,0,.18-2.16l.11-2.16H709v-.08l-.1.08H708v.27a.76.76,0,0,1-.2-.06c0,1.22,0,2.32-.07,3.38s-.25,2.06-.42,3.1c-.42,1.16-.85,2.36-1.2,3.6-.24.6-.47,1.22-.69,1.84a19.52,19.52,0,0,1-.71,1.88c-.36.74-.72,1.51-1.13,2.37a36.8,36.8,0,0,1-5.83,7.88c-1.27,1.18-2.83,2.42-4.1,3.51-.15.14-.27.28-.4.42a16.58,16.58,0,0,1-2,1.33c-.68.41-1.32.88-2,1.24l-2.13,1.09a23.91,23.91,0,0,1-2.2.95,19.2,19.2,0,0,1-2,.67l-.62,0c-1.43,0-2.53.18-3.76.23-.61,0-1.25.12-2,.22l-2.42.14a31.93,31.93,0,0,1-12.7-2.1,49.83,49.83,0,0,1-11.19-6.1c-.66-.49-1.31-1-1.93-1.44l-1.72-1.58a34.77,34.77,0,0,1-6.8-11.84,15.48,15.48,0,0,0-.57-2.14c.25-.17.3-.75.23-1.56s-.12-1.87-.29-3-.19-2.3-.31-3.36-.11-2-.15-2.62c-.07-.11-.14,0-.21-.08a24.66,24.66,0,0,1,.14-2.5c.12-.94.24-2,.41-3s.49-1.94.72-2.75a8.33,8.33,0,0,1,.8-1.84,25.06,25.06,0,0,1,.55-2.79,28.3,28.3,0,0,1,1.57-3.05c.43-.39.85-.69,1.26-1,.21-.17.41-.34.62-.54a7.64,7.64,0,0,0,.7-.63,4.86,4.86,0,0,1,1-2.56,25,25,0,0,1,2.3-2.62c.66-.56,1.67-1.47,2.72-2.24.09,0,.17,0,.19,0,.48-.3.92-.62,1.35-1a10.9,10.9,0,0,1,1.34-1,1.11,1.11,0,0,1-.11.17,6.24,6.24,0,0,0,2.71-2.19l.89-.43c1.66-.62,3-.7,4.82-1.34,1-.28,2-.59,3-.94a25.29,25.29,0,0,1,3.09-.75l.82-.16.72-.09c.45-.05.84-.11,1.22-.18a38.09,38.09,0,0,1,5,.09c.83.09,1.66.24,2.48.36.42.07.83.12,1.24.2l1.22.31a46.05,46.05,0,0,1,9.86,4.35c.41.26.87.53,1.33.83l1.35,1,1.35,1a11.81,11.81,0,0,0,1.2.86l.06,0a35.28,35.28,0,0,1,8.5,11.73,34.76,34.76,0,0,1,3,14.18Zm-9.16,24.15.84-.94.76-1,.09,0-.8,1C701,397.09,700.66,397.4,700.36,397.72Zm5.18-7.18h0l.11-.2Z" transform="translate(-636.04 -336.38)"/><path d="M678.56,349.25h-.26a1.63,1.63,0,0,0-.07-.26c-.12-.43-.23-.1-.35.07l-.17.19h-.94c0-.16-.08-.41-.13-.44s-.1.25-.17.32c-.32.37-.59-.9-.9-.44-.18.29-.35.49-.54.53a1.2,1.2,0,0,1-.2,0H674l-.15-.2c-.18-.23-.35.12-.5.2h-.12l-.08-.08c0-.1-.13-.35-.19-.34s-.09.17-.13.22a.18.18,0,0,0-.1-.06c-.08-.14-.12-.37-.23-.22s0,.25,0,.37l0,0a4,4,0,0,1-.11-.41,1.44,1.44,0,0,0-.05.24c-.09-.45-.23-.59-.33-.13,0,0-.06-.05-.09,0s-.14.26-.2.43h0c-.09-.12-.16-.18-.23-.72,0,.07,0,.13,0,.19-.08-.28-.28-.08-.33.51h0l-.08-.1c-.09-.43-.16-.44-.24-.28-.05,0-.09,0-.13,0a5.25,5.25,0,0,1-.67.22h-.06c-.05-.08-.1-.16-.15-.16a.22.22,0,0,0-.09.1c-.13,0-.27,0-.4.26h0l-.11-.12v-.21c-.07.09-.14.2-.22.14a1.33,1.33,0,0,1,0-.2c-.07.23-.11.07-.09-.41,0,.12-.07.2-.09.32-.06-.55-.34-.18-.45.14a.65.65,0,0,0-.26-.22c-.15-.05-.22,0-.23.56h-.2v.53h0a.34.34,0,0,0,0,.1v.94h0v.2c.12,0,.22-.19.32-.15.13.33.26.33.39.25h.14a1.61,1.61,0,0,1,.49,0c.09,0,.19.19.28,0,0,0,0-.06,0-.09a1,1,0,0,0,.48-.21h.11l0,.12c.14.62.22.71.41.64.43-.15.9.57,1.32-.3.08-.17.16-.31.24-.46h.69c0,.11.07.16.11.06,0,1.13.4.87.53.61a1.47,1.47,0,0,0,0-.21c.14,0,.44-.27.53.08,0-.22.1-.32.14-.54H674c.06.33.1.8.16,1,.05-.82.22-.83.32-.81s.11.09.17.11a.66.66,0,0,1,0,.14c.06.1.11,0,.17,0s0,.05,0,.09.15-.06.17-.53h0c.09.23.16.56.25.58s.22-.29.32-.37a.43.43,0,0,0,.14-.21h.5c.19.35.35.22.55.21s.23.13.32-.19v0h1.46Zm-9.73,0h-.12v-.06Zm-.43-.19h0Z" transform="translate(-636.04 -336.38)"/><path d="M688.56,355.25h-.72a1.67,1.67,0,0,0-.17-.26c-.33-.43-.63-.1-1,.07l-.45.19h-2.58c-.11-.16-.21-.41-.34-.44s-.29.25-.45.32c-.88.37-1.63-.9-2.47-.44a3.36,3.36,0,0,1-1.47.53c-.18,0-.36,0-.55,0h-2.23l-.42-.2c-.49-.23-.93.12-1.37.2H674a1,1,0,0,1-.2-.08c-.15-.1-.38-.35-.54-.34s-.23.17-.34.22a1,1,0,0,0-.29-.06c-.21-.14-.3-.37-.62-.22a2.73,2.73,0,0,1-.07.37l-.06,0a4.33,4.33,0,0,1-.3-.41,1.38,1.38,0,0,0-.14.24c-.24-.45-.63-.59-.9-.13a.47.47,0,0,0-.24,0c-.21,0-.38.26-.56.43h-.08a1,1,0,0,1-.61-.72l-.12.19c-.22-.28-.76-.08-.91.51h0l-.2-.1c-.24-.43-.45-.44-.68-.28a1,1,0,0,0-.35,0c-.59.08-1.19.17-1.81.22h-.16a.91.91,0,0,0-.42-.16.51.51,0,0,0-.24.1,1.31,1.31,0,0,0-1.08.26h0l-.29-.12c0-.07,0-.14,0-.21a.85.85,0,0,1-.59.14s0-.17,0-.2c-.19.23-.29.07-.25-.41-.06.12-.19.2-.25.32-.15-.55-.92-.18-1.21.14a2.65,2.65,0,0,0-.71-.22c-.42-.05-.6,0-.62.56h-.57v.53h0a.34.34,0,0,1,0,.1v.94h0a1.34,1.34,0,0,1,0,.2,3.94,3.94,0,0,1,.89-.15,1.07,1.07,0,0,0,1.07.25h.36a12.16,12.16,0,0,1,1.35,0c.24,0,.52.19.75,0a.73.73,0,0,0,.08-.09,6,6,0,0,0,1.3-.21h.29l.08.12c.38.62.62.71,1.13.64,1.17-.15,2.46.57,3.59-.3l.65-.46H672c.09.11.19.16.3.06,0,1.13,1.11.87,1.46.61a1.48,1.48,0,0,1,0-.21c.37,0,1.17-.27,1.42.08.13-.22.28-.32.39-.54h.47a4.18,4.18,0,0,0,.44,1c.13-.82.59-.83.85-.81s.31.09.49.11a.68.68,0,0,1,0,.14c.15.1.3,0,.45,0a.51.51,0,0,1,0,.09c.22.1.4-.06.47-.53h.14c.24.23.41.56.68.58s.58-.29.87-.37a.74.74,0,0,0,.38-.21h1.37a2.13,2.13,0,0,0,1.48.21c.27,0,.64.13.88-.19v0h4Zm-26.55,0h-.33v-.06Zm-1.16-.19h0Z" transform="translate(-636.04 -336.38)"/><path d="M664.56,361.25h-.24a1.67,1.67,0,0,0-.06-.26c-.11-.43-.21-.1-.32.07l-.15.19h-.86a2.09,2.09,0,0,0-.11-.44c-.06,0-.1.25-.16.32-.29.37-.54-.9-.82-.44-.17.29-.31.49-.49.53l-.18,0h-.74l-.14-.2c-.17-.23-.32.12-.46.2h-.11l-.07-.08c0-.1-.12-.35-.17-.34s-.08.17-.12.22-.06-.06-.09-.06-.11-.37-.21-.22,0,.25,0,.37l0,0c0-.14-.06-.25-.1-.41,0,.07,0,.15,0,.24-.08-.45-.21-.59-.3-.13,0,0-.05-.05-.08,0s-.13.26-.19.43h0c-.08-.12-.15-.18-.21-.72a1.06,1.06,0,0,1,0,.19c-.07-.28-.25-.08-.3.51h0l-.07-.1c-.08-.43-.14-.44-.22-.28a.13.13,0,0,0-.12,0,3.89,3.89,0,0,1-.6.22h-.06c0-.08-.09-.16-.14-.16s0,.05-.07.1-.25,0-.37.26h0l-.1-.12v-.21c-.06.09-.13.2-.2.14a1.33,1.33,0,0,1,0-.2c-.06.23-.1.07-.09-.41,0,.12-.06.2-.08.32-.05-.55-.31-.18-.4.14a.69.69,0,0,0-.24-.22c-.14-.05-.2,0-.21.56h-.18v.53h0a.34.34,0,0,0,0,.1v.94h0v.2c.11,0,.2-.19.29-.15.11.33.23.33.36.25h.12a1.36,1.36,0,0,1,.45,0c.08,0,.17.19.25,0,0,0,0-.06,0-.09a.89.89,0,0,0,.44-.21h.09l0,.12c.13.62.21.71.38.64.39-.15.82.57,1.2-.3.07-.17.14-.31.21-.46h.63c0,.11.06.16.1.06,0,1.13.37.87.48.61,0-.07,0-.14,0-.21s.39-.27.47.08c0-.22.09-.32.13-.54h.16a8.13,8.13,0,0,0,.15,1c0-.82.19-.83.28-.81s.1.09.16.11,0,.09,0,.14.1,0,.15,0a.34.34,0,0,1,0,.09c.08.1.14-.06.16-.53h0c.08.23.14.56.23.58s.2-.29.29-.37a.42.42,0,0,0,.13-.21h.46c.16.35.31.22.49.21s.21.13.29-.19v0h1.33Zm-8.85,0h-.11v-.06Zm-.38-.19h0Z" transform="translate(-636.04 -336.38)"/><path d="M683.56,360.25h-.31a1.6,1.6,0,0,0-.08-.26c-.14-.43-.27-.1-.42.07s-.13.13-.19.19h-1.12c-.05-.16-.09-.41-.15-.44s-.12.25-.19.32c-.39.37-.71-.9-1.07-.44-.22.29-.41.49-.64.53l-.24,0h-1l-.19-.2c-.21-.23-.4.12-.59.2h-.14a.32.32,0,0,1-.09-.08c-.06-.1-.16-.35-.23-.34s-.1.17-.15.22a.23.23,0,0,0-.12-.06c-.1-.14-.14-.37-.27-.22s0,.25,0,.37l0,0c0-.14-.09-.25-.13-.41q0,.11-.06.24c-.1-.45-.27-.59-.39-.13a.11.11,0,0,0-.1,0c-.1,0-.17.26-.25.43h0c-.1-.12-.19-.18-.26-.72l-.06.19c-.09-.28-.33-.08-.39.51h0l-.09-.1c-.1-.43-.19-.44-.29-.28a.2.2,0,0,0-.15,0,7.1,7.1,0,0,1-.79.22h-.07c-.06-.08-.12-.16-.18-.16s-.07.05-.1.1-.32,0-.47.26h0l-.13-.12a1.47,1.47,0,0,0,0-.21c-.08.09-.17.2-.26.14a1.33,1.33,0,0,1,0-.2c-.08.23-.12.07-.11-.41,0,.12-.08.2-.11.32-.06-.55-.4-.18-.52.14a.77.77,0,0,0-.31-.22c-.18-.05-.26,0-.27.56h-.24v.53h0s0,.07,0,.1v.94h0v.2c.14,0,.26-.19.39-.15.14.33.3.33.46.25h.15a2.33,2.33,0,0,1,.59,0c.1,0,.22.19.32,0a.25.25,0,0,0,0-.09,1.29,1.29,0,0,0,.56-.21h.13l0,.12c.17.62.27.71.49.64.51-.15,1.07.57,1.56-.3l.28-.46h.81c0,.11.09.16.13.06,0,1.13.49.87.63.61,0-.07,0-.14,0-.21.16,0,.51-.27.62.08.05-.22.12-.32.16-.54h.21a7.3,7.3,0,0,0,.19,1c0-.82.25-.83.37-.81s.13.09.21.11,0,.09,0,.14.13,0,.19,0a.34.34,0,0,1,0,.09c.1.1.18-.06.21-.53h.06c.1.23.18.56.29.58s.26-.29.38-.37a.46.46,0,0,0,.17-.21h.59c.22.35.41.22.64.21s.28.13.38-.19v0h1.72Zm-11.5,0h-.15v-.06Zm-.5-.19h0Z" transform="translate(-636.04 -336.38)"/><path d="M692.56,361.25h-.09c0-.1,0-.18,0-.26,0-.43-.08-.1-.13.07l-.06.19h-.34a4.24,4.24,0,0,0,0-.44s0,.25-.06.32c-.11.37-.21-.9-.33-.44-.06.29-.12.49-.19.53l-.08,0h-.29l-.06-.2c-.06-.23-.12.12-.18.2h0a.34.34,0,0,1,0-.08,1.72,1.72,0,0,0-.07-.34s0,.17,0,.22,0-.06,0-.06,0-.37-.08-.22,0,.25,0,.37v0c0-.14,0-.25,0-.41a2.32,2.32,0,0,1,0,.24c0-.45-.08-.59-.12-.13,0,0,0-.05,0,0a1.85,1.85,0,0,0-.07.43h0a2.54,2.54,0,0,1-.08-.72c0,.07,0,.13,0,.19,0-.28-.1-.08-.12.51h0l0-.1c0-.43-.06-.44-.09-.28,0,0,0,0-.05,0a1.6,1.6,0,0,1-.24.22h0c0-.08,0-.16-.06-.16a.29.29,0,0,0,0,.1s-.1,0-.14.26h0l0-.12c0-.07,0-.14,0-.21,0,.09,0,.2-.07.14a1.33,1.33,0,0,1,0-.2c0,.23,0,.07,0-.41,0,.12,0,.2,0,.32,0-.55-.13-.18-.16.14a.65.65,0,0,0-.1-.22c-.05-.05-.08,0-.08.56h-.08v.53h0v1h0v.2s.08-.19.12-.15c0,.33.09.33.14.25h0c.06,0,.12-.06.18,0s.07.19.1,0a.31.31,0,0,1,0-.09.43.43,0,0,0,.17-.21h0s0,.08,0,.12c.05.62.08.71.15.64s.33.57.48-.3c0-.17.06-.31.09-.46h.25c0,.11,0,.16,0,.06,0,1.13.14.87.19.61v-.21s.16-.27.19.08c0-.22,0-.32.05-.54h.07c0,.33,0,.8.06,1,0-.82.07-.83.11-.81s0,.09.06.11a.66.66,0,0,1,0,.14c0,.1,0,0,.06,0a.34.34,0,0,1,0,.09c0,.1.06-.06.07-.53h0a3,3,0,0,0,.1.58s.07-.29.11-.37a.64.64,0,0,0,0-.21h.19c.06.35.12.22.19.21s.09.13.12-.19v0h.53Zm-3.54,0h0v-.06Zm-.15-.19h0Z" transform="translate(-636.04 -336.38)"/><path d="M671.35,380.49l.15-.31.27,0c.46,0,.21-.23.14-.45a1.52,1.52,0,0,1-.09-.28l.51-1.11c.18,0,.42.08.47,0s-.17-.23-.2-.33c-.16-.53,1.15-.32.89-.88a1.35,1.35,0,0,1-.19-.86l.09-.25.45-1,.26-.1c.31-.11.08-.45.09-.67l.07-.14a.27.27,0,0,1,.12-.05c.11,0,.39,0,.41-.1s-.11-.17-.13-.24a.27.27,0,0,0,.11-.1c.17,0,.39,0,.33-.17s-.22-.13-.33-.19v0a3.44,3.44,0,0,1,.43,0l-.19-.17c.45.09.66,0,.29-.33a.13.13,0,0,0,.09-.09c0-.1-.16-.27-.28-.42l0,0c.16-.06.25-.11.78,0l-.16-.14c.3,0,.23-.29-.28-.61h0l.12-.05c.44.07.5,0,.4-.18a.23.23,0,0,0,.09-.14,6.64,6.64,0,0,1,.16-.87l0-.08c.1,0,.21-.05.23-.11a.24.24,0,0,0,0-.15.43.43,0,0,0,0-.58h0l.17-.08.19.08c0-.11-.1-.25,0-.31l.17.08c-.16-.18,0-.15.43.06-.1-.07-.14-.16-.24-.24.53.17.35-.32.12-.58a.8.8,0,0,0,.33-.22c.14-.16.12-.25-.38-.5l.11-.25-.48-.22h0l-.09,0-.86-.4v0l-.18-.09c0,.16.06.34,0,.45-.37,0-.45.16-.45.35l-.06.16a2.88,2.88,0,0,1-.27.59c-.06.1-.27.14-.16.32l.07.07a1.58,1.58,0,0,0-.07.66l-.06.12h-.12c-.64-.1-.77,0-.81.22-.1.57-1,.82-.45,1.68l.29.47-.38.81c-.11,0-.18,0-.11.11-1-.45-1,.12-.84.38l.19.09c-.05.18,0,.62-.36.59.17.14.24.25.41.39l-.1.2a7.55,7.55,0,0,0-1-.22c.72.4.64.6.57.71s-.14.09-.2.16l-.14-.05c-.11,0-.08.12-.09.19l-.08,0c-.14.05,0,.2.38.42l0,.06c-.25,0-.59,0-.66.06s.15.37.16.53a.51.51,0,0,0,.11.25l-.27.59c-.42.08-.39.32-.49.56s-.24.22,0,.46h0l-.79,1.72ZM676.66,369l.07-.14,0,0Zm.41-.42h0Z" transform="translate(-636.04 -336.38)"/><path d="M681.18,380.74l.31-.31.26.11c.45.16.34-.21.38-.47a2.88,2.88,0,0,1,0-.33l1.12-1.12c.17.07.39.2.46.16s0-.3,0-.42c.12-.65,1.35-.07,1.38-.76a1.7,1.7,0,0,1,.26-1l.22-.26,1-1,.32,0c.37-.05.32-.49.45-.73l.14-.14a.33.33,0,0,1,.15,0c.13,0,.41.08.47,0s0-.22,0-.31a.38.38,0,0,0,.17-.08,1.78,1.78,0,0,1,.26,0v-1.91c0-.08,0-.14-.14-.16s-.2.15-.3.23h0c.06-.14.09-.27.16-.42l-.23.11c.22-.42.15-.69-.3-.48a.19.19,0,0,0-.07-.13c-.11-.08-.35,0-.55.06l0,0c0-.19-.06-.31.24-.77l-.19.09c.1-.3-.27-.4-.75,0h0c0-.05,0-.1,0-.16.2-.4.13-.51-.09-.49a.38.38,0,0,0-.14-.17,10.28,10.28,0,0,1-.94-.63.23.23,0,0,1-.07-.07c0-.11,0-.23-.07-.29a.23.23,0,0,0-.17,0,.61.61,0,0,0-.66-.29h0l0-.2c0-.06.11-.1.15-.16-.14,0-.31,0-.35-.16s.11-.12.13-.14c-.24.08-.17-.08.18-.4-.11.06-.22.06-.33.12.32-.46-.27-.53-.62-.43a1.25,1.25,0,0,0-.15-.46c-.15-.22-.26-.26-.67.13l-.25-.25-.37.37h0l-.06.07-.67.67h0l-.15.14c.18.11.4.12.5.27a.48.48,0,0,0,.28.65l.16.15a5.39,5.39,0,0,1,.59.58c.09.12.09.36.31.33l.1,0a2.44,2.44,0,0,0,.72.42l.12.13-.05.12c-.27.6-.23.76,0,.94.61.4.66,1.46,1.77,1.34l.6,0,.81.81c0,.12,0,.2.09.18a1.59,1.59,0,0,0-.25.33V372.3c-.55-.33-.75.18-.72.46,0,.05.1.09.15.15-.14.19-.32.7-.68.56.1.21.11.35.21.55l-.2.2a6.65,6.65,0,0,0-.89-.5c.52.63.33.84.21.94s-.2.07-.3.13l-.1-.09c-.14,0-.15.11-.21.19l-.05-.07c-.17,0-.13.21.17.57l-.06.06c-.26-.05-.58-.21-.71-.11s0,.46-.11.64a.54.54,0,0,0,0,.31l-.59.59c-.47,0-.56.26-.8.5s-.36.19-.24.52h0l-1.73,1.73ZM683.67,368l-.14-.14,0-.05Zm-.36-.63h0v0Z" transform="translate(-636.04 -336.38)"/><path d="M667.22,380.55l-.3-.35a1.51,1.51,0,0,0,.12-.26c.19-.43-.19-.36-.46-.42l-.33-.08-1.09-1.24c.08-.16.22-.37.19-.45s-.31,0-.43,0c-.65-.18,0-1.38-.71-1.47a1.73,1.73,0,0,1-1-.36l-.25-.24L662,374.6l0-.34c0-.38-.49-.37-.73-.52l-.13-.15a.27.27,0,0,1,0-.16c0-.13.1-.41,0-.47s-.22,0-.31,0a.3.3,0,0,0-.07-.18c0-.2.15-.39-.1-.45a2.43,2.43,0,0,1-.31.21h0l0-.06-.05,1.4a3.3,3.3,0,0,1,.37.13,2.08,2.08,0,0,0-.1-.24c.42.22.69.14.49-.31a.17.17,0,0,0,.13-.08c.08-.11,0-.35,0-.56l0,0c.2,0,.33-.06.79.24l-.09-.2c.3.1.41-.28,0-.77h0l.16,0c.41.2.52.12.5-.1a.34.34,0,0,0,.18-.15c.21-.32.42-.65.66-1l.07-.08c.12,0,.24,0,.3-.08a.19.19,0,0,0,0-.17.64.64,0,0,0,.31-.68h0l.22,0,.15.14c0-.14,0-.31.17-.36s.12.12.14.14c-.07-.25.09-.18.41.17-.06-.11-.06-.22-.11-.33.45.32.54-.29.44-.64a1.36,1.36,0,0,0,.48-.17c.22-.15.27-.27-.12-.68l.25-.25-.37-.38h0l-.07-.06-.67-.67,0,0-.13-.15c-.12.19-.14.41-.29.52a.51.51,0,0,0-.67.29l-.16.17a5.82,5.82,0,0,1-.6.62c-.12.09-.37.09-.34.32a.38.38,0,0,0,0,.1,2.62,2.62,0,0,0-.45.74l-.13.13-.12,0c-.61-.26-.77-.22-1,0-.42.64-1.5.71-1.41,1.84,0,.22,0,.41,0,.61l-.79.79-.45.45.42.49.06.06c0,.12,0,.2.08.19-.82.77-.18,1.1.16,1.1a2,2,0,0,0,.16-.14c.18.16.7.39.54.74.22-.08.36-.08.56-.17l.2.23a5,5,0,0,0-.55.86c.66-.48.87-.27,1-.13s.06.21.12.31l-.1.1c0,.14.11.16.19.22l-.08.05c0,.18.22.16.59-.12l.06.07c-.07.26-.24.57-.15.71s.47.08.65.17a.55.55,0,0,0,.31.05l.58.65c0,.47.23.59.46.85s.18.39.52.29h0l1.67,1.91Zm-2.6-11.26.15-.14.05,0Zm.66-.38h0Z" transform="translate(-636.04 -336.38)"/><path d="M691.56,385.25h-.91a1.88,1.88,0,0,0-.22-.26c-.42-.43-.8-.1-1.24.07l-.56.19h-3.27c-.14-.16-.27-.41-.43-.44s-.37.25-.58.32c-1.11.37-2.06-.9-3.12-.44a5.11,5.11,0,0,1-1.86.53c-.23,0-.47,0-.7,0h-2.83l-.53-.2c-.62-.23-1.18.12-1.73.2h-.41a1.53,1.53,0,0,1-.26-.08c-.18-.1-.47-.35-.68-.34s-.29.17-.43.22a1.69,1.69,0,0,0-.36-.06c-.28-.14-.39-.37-.8-.22a1.67,1.67,0,0,1-.09.37l-.07,0c-.12-.14-.26-.25-.38-.41a2.5,2.5,0,0,0-.18.24c-.3-.45-.79-.59-1.13-.13a.78.78,0,0,0-.3,0,1.63,1.63,0,0,0-.72.43h-.1a1.09,1.09,0,0,1-.77-.72l-.15.19c-.29-.28-1-.08-1.15.51h0l-.26-.1c-.3-.43-.56-.44-.85-.28a1.68,1.68,0,0,0-.45,0c-.74.08-1.5.17-2.29.22h-.21a1.3,1.3,0,0,0-.53-.16.76.76,0,0,0-.3.1,2,2,0,0,0-1.37.26h0l-.36-.12c0-.07,0-.14,0-.21a1.3,1.3,0,0,1-.75.14s0-.17,0-.2c-.24.23-.37.07-.33-.41-.06.12-.23.2-.31.32-.19-.55-1.17-.18-1.53.14a4.22,4.22,0,0,0-.9-.22c-.53-.05-.76,0-.79.56h-.71v.53h0s0,.07,0,.1v.94h0a1.34,1.34,0,0,1,0,.2,6.18,6.18,0,0,1,1.13-.15,1.6,1.6,0,0,0,1.35.25h.46c.57,0,1.14-.06,1.71,0,.3,0,.65.19.94,0a.43.43,0,0,0,.1-.09,9.31,9.31,0,0,0,1.66-.21h.36l.11.12a1.3,1.3,0,0,0,1.43.64c1.48-.15,3.11.57,4.55-.3l.82-.46h2.37c.13.11.25.16.39.06.07,1.13,1.41.87,1.84.61,0-.07,0-.14,0-.21.47,0,1.49-.27,1.8.08.16-.22.35-.32.49-.54h.59c.2.33.33.8.57,1a.9.9,0,0,1,1.08-.81c.15,0,.38.09.61.11a.23.23,0,0,1,0,.14,1,1,0,0,0,.58,0,.23.23,0,0,1,0,.09c.29.1.52-.06.6-.53h.17c.3.23.53.56.87.58s.74-.29,1.1-.37a1.06,1.06,0,0,0,.48-.21h1.74a3.33,3.33,0,0,0,1.87.21c.34,0,.81.13,1.11-.19l0,0h5Zm-33.63,0h-.42v-.06Zm-1.46-.19h0Z" transform="translate(-636.04 -336.38)"/><path d="M686.56,391.25h-.67a1.64,1.64,0,0,0-.16-.26c-.31-.43-.59-.1-.91.07l-.42.19H682c-.1-.16-.2-.41-.32-.44s-.27.25-.42.32c-.82.37-1.52-.9-2.3-.44a3.08,3.08,0,0,1-1.37.53c-.17,0-.35,0-.52,0H675l-.39-.2c-.46-.23-.88.12-1.28.2H673a.77.77,0,0,1-.19-.08c-.14-.1-.35-.35-.5-.34s-.21.17-.32.22a.88.88,0,0,0-.27-.06c-.2-.14-.28-.37-.58-.22a2.73,2.73,0,0,1-.07.37l-.05,0a4.21,4.21,0,0,1-.28-.41,1.36,1.36,0,0,0-.13.24c-.22-.45-.59-.59-.84-.13a.41.41,0,0,0-.22,0c-.2,0-.36.26-.53.43H669a.94.94,0,0,1-.57-.72l-.11.19c-.21-.28-.71-.08-.85.51h0l-.19-.1c-.23-.43-.42-.44-.63-.28a.89.89,0,0,0-.33,0c-.55.08-1.11.17-1.69.22h-.15a.81.81,0,0,0-.39-.16.44.44,0,0,0-.22.1,1.19,1.19,0,0,0-1,.26h0l-.27-.12c0-.07,0-.14,0-.21a.78.78,0,0,1-.56.14s0-.17,0-.2c-.18.23-.27.07-.24-.41-.05.12-.17.2-.23.32-.14-.55-.86-.18-1.12.14a2.62,2.62,0,0,0-.67-.22c-.39-.05-.56,0-.58.56h-.53v.53h0a.34.34,0,0,1,0,.1v.94h0c0,.07,0,.13,0,.2a3.32,3.32,0,0,1,.83-.15.94.94,0,0,0,1,.25h.33a10.76,10.76,0,0,1,1.27,0c.22,0,.48.19.69,0a.31.31,0,0,0,.07-.09,5.2,5.2,0,0,0,1.22-.21h.27l.08.12c.35.62.57.71,1,.64,1.09-.15,2.29.57,3.35-.3l.61-.46h1.75c.09.11.18.16.28.06.05,1.13,1,.87,1.36.61a1.48,1.48,0,0,0,0-.21c.35,0,1.1-.27,1.33.08.12-.22.26-.32.36-.54h.44a4.2,4.2,0,0,0,.42,1c.11-.82.54-.83.79-.81s.28.09.45.11a.68.68,0,0,1,0,.14c.14.1.28,0,.43,0l0,.09c.21.1.38-.06.44-.53h.13c.22.23.39.56.64.58s.54-.29.81-.37a.72.72,0,0,0,.36-.21h1.27c.48.35.88.22,1.39.21.25,0,.59.13.82-.19v0h3.72Zm-24.78,0h-.31v-.06Zm-1.08-.19h0Z" transform="translate(-636.04 -336.38)"/><path d="M678.56,396.25h-.26a1.63,1.63,0,0,0-.07-.26c-.12-.43-.23-.1-.35.07l-.17.19h-.94c0-.16-.08-.41-.13-.44s-.1.25-.17.32c-.32.37-.59-.9-.9-.44-.18.29-.35.49-.54.53a1.2,1.2,0,0,1-.2,0H674l-.15-.2c-.18-.23-.35.12-.5.2h-.12l-.08-.08c0-.1-.13-.35-.19-.34s-.09.17-.13.22a.18.18,0,0,0-.1-.06c-.08-.14-.12-.37-.23-.22s0,.25,0,.37l0,0a4,4,0,0,1-.11-.41,1.44,1.44,0,0,0-.05.24c-.09-.45-.23-.59-.33-.13,0,0-.06-.05-.09,0s-.14.26-.2.43h0c-.09-.12-.16-.18-.23-.72,0,.07,0,.13,0,.19-.08-.28-.28-.08-.33.51h0l-.08-.1c-.09-.43-.16-.44-.24-.28-.05,0-.09,0-.13,0a5.25,5.25,0,0,1-.67.22h-.06c-.05-.08-.1-.16-.15-.16a.22.22,0,0,0-.09.1c-.13,0-.27,0-.4.26h0l-.11-.12v-.21c-.07.09-.14.2-.22.14a1.33,1.33,0,0,1,0-.2c-.07.23-.11.07-.09-.41,0,.12-.07.2-.09.32-.06-.55-.34-.18-.45.14a.65.65,0,0,0-.26-.22c-.15-.05-.22,0-.23.56h-.2v.53h0a.34.34,0,0,0,0,.1v.94h0v.2c.12,0,.22-.19.32-.15.13.33.26.33.39.25h.14a1.61,1.61,0,0,1,.49,0c.09,0,.19.19.28,0,0,0,0-.06,0-.09a1,1,0,0,0,.48-.21h.11l0,.12c.14.62.22.71.41.64.43-.15.9.57,1.32-.3.08-.17.16-.31.24-.46h.69c0,.11.07.16.11.06,0,1.13.4.87.53.61a1.47,1.47,0,0,0,0-.21c.14,0,.44-.27.53.08,0-.22.1-.32.14-.54H674c.06.33.1.8.16,1,.05-.82.22-.83.32-.81s.11.09.17.11a.66.66,0,0,1,0,.14c.06.1.11,0,.17,0s0,.05,0,.09.15-.06.17-.53h0c.09.23.16.56.25.58s.22-.29.32-.37a.43.43,0,0,0,.14-.21h.5c.19.35.35.22.55.21s.23.13.32-.19v0h1.46Zm-9.73,0h-.12v-.06Zm-.43-.19h0Z" transform="translate(-636.04 -336.38)"/><path d="M699.58,397.19l.2.24a2.17,2.17,0,0,0-.15.22c-.24.39.1.27.32.27l.27,0,.72.83c-.1.14-.26.34-.24.4s.27-.08.37-.07c.52,0-.24,1.12.35,1.08h.15l.1-1.81a1,1,0,0,1-.11.66l-.15.18-.7.64-.26,0c-.31,0-.21.36-.29.55l-.1.09h-.12c-.11,0-.36-.15-.4-.09s0,.19.05.26a.26.26,0,0,0-.14,0c-.16,0-.34-.18-.34,0s.15.2.23.29v0c-.12-.07-.23-.12-.37-.21l.12.22c-.38-.26-.59-.25-.36.16a.12.12,0,0,0-.11,0c-.05.08.06.3.12.48l0,0c-.16,0-.26,0-.69-.35l.1.18c-.26-.14-.3.15.07.63h-.14c-.37-.24-.45-.2-.4,0a.21.21,0,0,0-.13.09c-.11.2-.22.4-.35.59l1.58.09-.09-.07,0,0c0-.1,0-.2,0-.24a.13.13,0,0,0-.14,0c-.07-.15-.19-.26-.5-.18h0v-.17l.16-.14c-.12,0-.26,0-.27-.1s.13-.11.15-.13c-.22.09-.13-.05.24-.35-.11.06-.2.07-.31.13.38-.41-.12-.42-.44-.3a.86.86,0,0,0,0-.37c-.08-.17-.16-.19-.6.17l-.15-.19-.4.35h0l-.07.07-.72.61v0l-.15.12c.13.08.32.07.37.19-.17.33-.07.44.1.51l.1.11a3.08,3.08,0,0,1,.38.43c0,.09,0,.29.2.25l.09,0a1.38,1.38,0,0,0,.52.29l.08.09-.07.1a2.08,2.08,0,0,0-.29.53l2,.11a.21.21,0,0,0,.25-.13c.27-.45,1.15-.29.92-1.25l-.11-.53.58-.54c.1.05.17.06.14,0,.78.81.93.31.86,0l-.14-.16c.09-.13.18-.53.5-.35-.11-.2-.13-.32-.25-.5l.15-.14a7.94,7.94,0,0,0,.81.59c-.52-.63-.38-.77-.29-.84s.16,0,.23-.05a.94.94,0,0,1,.1.1c.11,0,.11-.07.15-.13l0,.07c.14,0,.09-.16-.21-.52l0,0c.23.1.51.29.61.23s0-.21,0-.36l.07-1.41a.4.4,0,0,1-.16,0,.63.63,0,0,0-.27,0l-.38-.44c.12-.38-.1-.44-.25-.61s-.08-.28-.39-.15h0l-1.11-1.28Zm-1.9,4.82-.09-.11,0,0Zm-.18-.5h0v0Z" transform="translate(-636.04 -336.38)"/><path d="M708,420l1.49,1.56a3.89,3.89,0,0,0,.18.55c.39,1,1.29,1.37,2.17,1.94l1.15.72a34.47,34.47,0,0,0,6.4,4.34c.23.29.4.67.76.85a5,5,0,0,0,1.44.22c1.37.24,2.55.83,4.23.65a3.42,3.42,0,0,0,2.36-1.4,3.62,3.62,0,0,0,.56-2.5,18.69,18.69,0,0,0-1.65-4.51c-.23-.5-.46-1-.73-1.5a40.89,40.89,0,0,0-3.55-5.64c-.19-.39-.39-.77-.59-1.12a13.58,13.58,0,0,0-2.75-3l-.63-.71a4.39,4.39,0,0,1-.34-.5,7.62,7.62,0,0,0-.8-1.38,8.5,8.5,0,0,0-.84-.6c-.17-.24-.34-.46-.52-.67a3.63,3.63,0,0,0-1.07-1.5c-.13.09-.28.06-.42.09l-.12-.11c-.1-.31-.24-.62-.31-.93a4,4,0,0,0-.46-.14,2.67,2.67,0,0,0-1.79-2,3.05,3.05,0,0,0-.49-.53,5.6,5.6,0,0,0-1.57-.81l-.19-.15a9.1,9.1,0,0,1-.67-.79,2.16,2.16,0,0,1-.46-.92l-.43,0a3.1,3.1,0,0,0-1.45-.79,1.86,1.86,0,0,0-1.57.15h-.07l-.68-.2a3,3,0,0,0-1.26-.31,4,4,0,0,0-1.17.38,8.31,8.31,0,0,0-1.16.52c-.42.28-.8.6-1.19.91s-.7.71-1.05,1.07a15.43,15.43,0,0,0-.89,1.29l-.32.77a2.5,2.5,0,0,0-.22.81c0,.19-.07.4-.11.6a4.26,4.26,0,0,0-.14,1.52,3.53,3.53,0,0,0,.3.78,3.26,3.26,0,0,0,.28.9,8.88,8.88,0,0,0,.39.82,5.77,5.77,0,0,0,1.07,1.31l0,0,.41.8c0,.07-.12.08-.15.16a7.74,7.74,0,0,1,1.22,1.33c0,.06-.13.1-.14.13.55.29.62.62.19.85.2.05.51.3.72.36-.11.7,1.72,2.15,2.53,2.53a18.78,18.78,0,0,0,1.28,1.66c.81.93,1.2,1.27,1.65.93L708,420l.39-.36,0,0a.41.41,0,0,1,.05-.09l.69-.64-.07-.08.16-.11c-.7-.69-1.35-1.17-1.9-1.81a7.6,7.6,0,0,0-2-2.44l-.72-.76c-.9-1-1.81-1.89-2.6-2.91a9.65,9.65,0,0,0-1.24-1.67.86.86,0,0,0-.2-.13,11.28,11.28,0,0,1-1.61-3.09c0-.24,0-.48,0-.71,0-.07.07-.14.11-.2.41-.42.58-.68.85-1s.45-.6.77-1.09l.76-.76c.3-.2.6-.42.9-.59a3.72,3.72,0,0,1,1.84-.43c1.19,0,2.53.68,4,1.26a13.16,13.16,0,0,1,1.69.81c1.33,1.2,2.58,2.52,3.81,3.85a1.4,1.4,0,0,0,.55.7c-.73.86,1.54,3,2.42,3.56.08,0,.09-.1.17-.12.77.78,2.46,2.37,2.64,3.16.4.14.74.42,1.1.53.28.36.56.71.82,1.07a5.5,5.5,0,0,0,0,1.62c.86-.19,1.64.9,2,1.56.18.29.39.78.61,1.24a.19.19,0,0,1-.09.12,5.86,5.86,0,0,0,.61,1.13.26.26,0,0,1-.11,0c.19.62.56,1,1.05,1l.16.35a9.75,9.75,0,0,0,.11,2,13.48,13.48,0,0,1,.7,2.12,4.73,4.73,0,0,1,0,.49,1.81,1.81,0,0,1,0,.39c-.28,1-1.4,1.24-2.59,1.09-1.25-.52-2.39-.86-3.76-1.54a9.28,9.28,0,0,0-2.25-1.07h0A45.26,45.26,0,0,1,709.2,419Zm-6.88-7.42.64.74,0,.06Zm2.15,2.67h0l0,.07Z" transform="translate(-636.04 -336.38)"/></g></svg>