<svg id="Ebene_1" data-name="Ebene 1" xmlns="http://www.w3.org/2000/svg" viewBox="0 0 92.11 93.91"><defs><style>.cls-1{fill:none;stroke:#000;stroke-miterlimit:10;stroke-width:2px;}</style></defs><g id="lUPE"><circle class="cls-1" cx="36.31" cy="37.26" r="30"/><circle class="cls-1" cx="36.7" cy="36.7" r="35.7"/><line class="cls-1" x1="31.31" y1="13.26" x2="42.31" y2="13.26"/><line class="cls-1" x1="22.31" y1="19.26" x2="52.31" y2="19.26"/><line class="cls-1" x1="18.31" y1="25.26" x2="28.31" y2="25.26"/><line class="cls-1" x1="34.31" y1="24.26" x2="47.31" y2="24.26"/><line class="cls-1" x1="52.31" y1="25.26" x2="56.31" y2="25.26"/><line class="cls-1" x1="40.31" y1="30.26" x2="34.31" y2="43.26"/><polyline class="cls-1" points="45.31 30.25 51.31 36.26 44.31 43.26"/><polyline class="cls-1" points="29.31 30.25 23.31 36.26 30.31 44.26"/><line class="cls-1" x1="17.31" y1="49.26" x2="55.31" y2="49.26"/><line class="cls-1" x1="22.31" y1="55.26" x2="50.31" y2="55.26"/><line class="cls-1" x1="31.31" y1="60.26" x2="42.31" y2="60.26"/><polyline class="cls-1" points="59.81 64.6 61.67 66.75 66.31 62.45 63.99 59.76"/><path class="cls-1" d="M708.58,393.66c-7.18-7.84-14.12-13.31-8.12-18.31,5.47-4.56,10.31,1.89,17.49,9.73S729,401,726.46,403.35,715.76,401.5,708.58,393.66Z" transform="translate(-636.15 -311.09)"/></g></svg>