<svg id="Ebene_1" data-name="Ebene 1" xmlns="http://www.w3.org/2000/svg" viewBox="0 0 87.94 78.3"><g id="SCREEN"><path d="M643.64,345.61q-2.16,2.06-4.29,4.19l-.25.25v1.4c-.1.47-.18,1-.27,1.6a47,47,0,0,0,.07,9c.07,1.39.13,2.78.2,4.16v23.91a20.84,20.84,0,0,0-.44,3.14c0,1.58.25,2.67.32,4.2,0,1,.07,2,.07,2.93v.33l.2.25c1.38,1.72,2.63,3.43,3.85,5.12l.27.39.6,0a114.27,114.27,0,0,0,13.5.31c4.67-.28,8.79-.49,13.62-.53l5.1,0h20.65l3.91.2c4.52.23,8.66-.12,12.68-.2h3c.63,0,1.26,0,1.9.08l2.69.23.47,0,.46-.49c.54-.57,1.08-1.17,1.5-1.7.65-.83,1.2-1.77,1.81-2.62l.62-.73.24-.27v-.42c0-.59,0-1.16,0-1.7a34.63,34.63,0,0,0,.23-5.79c-.16-.07-.25-.45-.37-.67s0-.36,0-.53c.14-.91.25-1.92.41-2.78-.07-.46-.16-.89-.25-1.32a25.13,25.13,0,0,0,.13-8.28c0-.71,0-1.44,0-2.21,0-2-.26-3.54-.43-5.22v-.73a22.38,22.38,0,0,1,.73-5.63l-.2-1.1c.28-2.11.09-7.1-.51-8.44v-.19c0-.65.06-1.26.09-1.88a20.21,20.21,0,0,0,.33-2.53l0-.37-.32-.45a24.92,24.92,0,0,0-2.36-2.88c-.52-.68-1.06-1.37-1.65-2.11l-.41-.49h-1.23l-16.81.22H702c-1.28-.07-2.57-.16-3.9-.15-.83,0-1.54,0-2.19.1-3.47,0-6.95,0-10.07.26h-.17l-2.72-.12c-.1-.07,0-.14-.14-.2-1.73.08-3.59.19-5.49.13-.23,0,0-.16-.06-.19-1.75.23-2.71.07-2.49-.4-.48.13-1.69.2-2.23.32-1.53-.53-8.66-.15-11.22.15-2.23-.09-4.46-.17-6.69-.19-4,0-5.59,0-5.6.54h-5.26l.2.48h-.11l.14.09.36.87h.35a1.08,1.08,0,0,1,0,.18c3.06,0,5.48-.17,8.16-.13a83,83,0,0,0,9.91.26h3.33c4.15,0,8.3,0,12.47,0,2.2,0,4.77.19,6.85,0,.26,0,.48-.05.71-.09,4,0,8-.08,12-.19h2.63l.78.12a48.56,48.56,0,0,0,10.44.64c2.92,0,5.93,0,9,0l-1.15-.55c1.31,1.68,2.62,3.37,3.94,5.05l-.34-1c-.07,6.1-.06,12.17.4,17.84.16,2.11.31,4,.46,6v17.37a13,13,0,0,0-.06,2.8c-.51.23-.74,2.39-.81,5l.35-1c-1.38,1.63-2.84,3.54-3.94,5.05l1.15-.56c-.84,0-1.56.08-2.1.13-.14.07,0,.13-.1.21-3.45,0-10.9.27-13.23-.08-1.16.21-2.56.32-3.55.53h-4.34a29.24,29.24,0,0,0-4.15-1c-1.13.81-5.42.83-7.86.81l-4.49-.11c-.11-.05-.18-.1-.17-.15-1.44-.09-2.78,0-4.23,0a.77.77,0,0,1,.23-.09c-2.1-.11-3.76.06-4.38.52h-1.25a61.15,61.15,0,0,0-6.35-.57c-2.59,0-5.39.29-8,.37-1.54,0-2.57.11-3.53.2H644l.54.26-2-2.53c-.63-.91-1.25-1.77-1.85-2.57l.19.53c.12-3.46,0-6.72,0-10.56a67.41,67.41,0,0,0-.2-8.11V350.41l-.2.49c1.27-1.27,2.52-2.55,3.78-3.85Zm32.08-.05h-3.07l-.11-.06Zm-10.81-.17h0Z" transform="translate(-638.62 -344.78)"/><path d="M719,352.54h-1.83a2.32,2.32,0,0,0-.44-.26c-.83-.43-1.59-.1-2.46.07l-1.14.19h-6.54a2.35,2.35,0,0,0-.86-.44c-.43,0-.73.25-1.15.32-2.23.37-4.13-.9-6.24-.44a18.74,18.74,0,0,1-3.73.53c-.46,0-.93,0-1.4,0h-5.64l-1.07-.2a12.73,12.73,0,0,0-3.47.2h-.81a5.06,5.06,0,0,1-.52-.08,5.69,5.69,0,0,0-1.35-.34,6.52,6.52,0,0,0-.87.22,4.68,4.68,0,0,0-.73-.06,2.68,2.68,0,0,0-1.59-.22c0,.15-.12.25-.18.37l-.14,0c-.25-.14-.53-.25-.76-.41a2.25,2.25,0,0,0-.36.24,2.06,2.06,0,0,0-2.27-.13,2.93,2.93,0,0,0-.6,0,4.41,4.41,0,0,0-1.43.43h-.2a2.23,2.23,0,0,1-1.54-.72l-.3.19a2.25,2.25,0,0,0-2.31.51h0l-.52-.1a1.81,1.81,0,0,0-1.71-.28,6.61,6.61,0,0,0-.9,0c-1.48.08-3,.17-4.57.22h-.42a4.77,4.77,0,0,0-1.06-.16,2.15,2.15,0,0,0-.6.1,7.63,7.63,0,0,0-2.75.26h-.05l-.73-.12c0-.07,0-.14,0-.21a5,5,0,0,1-1.5.14c-.06,0,0-.17,0-.2-.49.23-.74.07-.66-.41-.13.12-.47.2-.62.32-.38-.55-2.34-.18-3.06.14A15.79,15.79,0,0,0,646,352c-1.07-.05-1.52,0-1.58.56H643v.53h0l0,.1v.94h.1l0,.2c.85,0,1.53-.19,2.26-.16a5.83,5.83,0,0,0,2.7.26H649c1.14,0,2.28-.06,3.42,0a6,6,0,0,0,1.89,0,1.11,1.11,0,0,0,.19-.09c1.11,0,2.21-.09,3.32-.21h.72l.21.12a4,4,0,0,0,2.86.64c3-.15,6.23.57,9.1-.3l1.64-.46h4.76a1,1,0,0,0,.76.06c.14,1.13,2.82.87,3.69.61,0-.07,0-.14,0-.21.94,0,3-.27,3.62.08.31-.22.7-.32,1-.54h1.18c.39.33.66.8,1.14,1,.31-.82,1.48-.83,2.15-.81.3,0,.77.09,1.23.11a.19.19,0,0,1,0,.14,3.76,3.76,0,0,0,1.16,0l-.06.09c.57.1,1-.06,1.2-.53h.34a5.13,5.13,0,0,0,1.73.58,19.6,19.6,0,0,0,2.21-.37,3.44,3.44,0,0,0,1-.21h3.47a13,13,0,0,0,3.76.21,5.12,5.12,0,0,0,2.21-.19l0,0H719Zm-67.26,0h-.84l0-.06Zm-2.93-.19h0Z" transform="translate(-638.62 -344.78)"/><path d="M643.1,384.41v2.65a1.93,1.93,0,0,0-.15.35l-.15.43,1.17.6.29.11c1.19.43,2.29.09,3.56-.07l1.65-.19h9.47a4,4,0,0,0,1.24.44,8.42,8.42,0,0,0,1.66-.33c3.23-.37,6,.91,9,.44a40,40,0,0,1,5.4-.53l2,0h8.18l1.55.2a26.52,26.52,0,0,0,5-.2h1.16a6.36,6.36,0,0,1,.75.08,11.58,11.58,0,0,0,2,.34,11.13,11.13,0,0,0,1.26-.23,9.57,9.57,0,0,0,1.05.07,5.59,5.59,0,0,0,2.29.22c0-.16.18-.25.27-.37l.21,0c.36.14.76.25,1.1.41.18-.07.35-.16.52-.24a4.06,4.06,0,0,0,3.28.12,6.17,6.17,0,0,0,.87.05,9.84,9.84,0,0,0,2.07-.43h.29a4,4,0,0,1,2.23.72l.43-.2c.84.28,2.81.09,3.34-.51h.08l.74.09a3.63,3.63,0,0,0,2.48.28c.41,0,.84,0,1.3,0H721l1.32-.05,0-1.24q-.09-3.09-.2-6.38v-.61a8.63,8.63,0,0,0,.16-1.53,3.63,3.63,0,0,0-.1-.86,15.87,15.87,0,0,0-.26-4V374l.12-1.07c.07,0,.14,0,.21,0a10.3,10.3,0,0,1-.13-2.17c0-.09.16,0,.19,0-.22-.7-.06-1.07.42-.94-.13-.2-.2-.68-.32-.9.54-.55.18-3.39-.14-4.43.1-.87.19-1.74.22-2.61.05-1.55,0-2.19-.57-2.28v-2.07h-.52v0l-.09,0h-1v.13l-.2,0c0,1.23.2,2.21.16,3.27a12,12,0,0,0-.26,3.91c0,.41,0,.84,0,1.32,0,1.65,0,3.31,0,5a11.88,11.88,0,0,0,0,2.73,2.31,2.31,0,0,0,.1.28c0,1.6.09,3.19.2,4.8v1.05l-.12.3a7.94,7.94,0,0,0-.64,4.14c0,1,0,2,0,3.09L721,386c-3.39-.09-6.9-.36-10.08.3l-2.38.46h-6.87a2.08,2.08,0,0,0-1.11-.06c-.2-1.12-4.08-.86-5.34-.6-.06.07,0,.13,0,.21-1.36,0-4.32.27-5.24-.08-.46.21-1,.32-1.4.53h-1.72a6.86,6.86,0,0,0-1.64-1c-.45.81-2.15.83-3.12.81-.43,0-1.12-.09-1.77-.11a.18.18,0,0,1-.07-.15,8.47,8.47,0,0,0-1.67,0,.25.25,0,0,1,.09-.09c-.83-.11-1.49.06-1.74.52h-.49a10.29,10.29,0,0,0-2.52-.57c-1,0-2.13.29-3.18.37a8,8,0,0,0-1.4.2h-5a28.71,28.71,0,0,0-5.44-.21,10.67,10.67,0,0,0-3.21.2H644l.69.69v-3Zm78.74-14.35v-1.21l.06,0Zm.19-4.24h0l0-.11Z" transform="translate(-638.62 -344.78)"/><path d="M643.1,376.41v.1l-.27,0c-.42.05-.09.09.07.13l.2.06v.35a2.72,2.72,0,0,0-.44,0s.25,0,.32.06c.37.12-.91.22-.44.33.29.07.49.13.53.2s0,.05,0,.07v.3l-.2.05c-.23.07.12.13.2.19v0l-.09,0a1.75,1.75,0,0,0-.33.07l.22,0-.06,0c-.14,0-.37,0-.23.09H643l-.41,0,.25,0c-.45,0-.59.08-.13.12,0,0-.05,0,0,0a2.18,2.18,0,0,0,.43.08h0a2.74,2.74,0,0,1-.73.08l.2,0c-.28,0-.09.1.51.12h0l-.1,0c-.43,0-.45.06-.28.09,0,0,0,0,0,0a2.4,2.4,0,0,1,.22.24v0c-.08,0-.17,0-.16.05l.1,0s0,.1.26.15h0l-.12,0h-.21c.08,0,.2,0,.13.08h-.19c.23,0,.06,0-.41,0l.31,0c-.54,0-.17.12.14.16a.61.61,0,0,0-.21.09c-.06.06,0,.08.56.09v.07h1.76c-.05-.05-.2-.08-.16-.12.34-.05.34-.09.26-.14s0,0,0,0-.05-.12,0-.18.19-.07,0-.1h-.1c0-.06-.08-.12-.2-.18v0h.12c.62-.06.71-.09.64-.16s.56-.32-.3-.47l-.46-.09v-.25c.1,0,.16,0,.06,0,1.13,0,.86-.15.61-.2h-.21c0-.05-.27-.15.07-.19l-.53-.05v-.06l1-.06c-.82,0-.83-.08-.82-.11s.09,0,.12-.07h.14c.09,0,0,0,0-.06h.08c.11,0,0,0-.52-.06v0a3.51,3.51,0,0,0,.58-.09s-.3-.08-.37-.12l-.21-.05v-.18c.34-.07.21-.13.21-.2s.12-.08-.2-.11h0v-.53Zm0,3.54V380H643Zm-.19.16h0Z" transform="translate(-638.62 -344.78)"/><path d="M725,390.54h-2.05a2.5,2.5,0,0,0-.49-.26c-.92-.43-1.77-.1-2.75.07l-1.28.19h-7.31a2.7,2.7,0,0,0-1-.44c-.49,0-.82.25-1.29.32-2.49.37-4.62-.9-7-.44a23.21,23.21,0,0,1-4.17.53c-.51,0-1,0-1.56,0h-6.32l-1.19-.2a15.88,15.88,0,0,0-3.88.2h-.9a5.4,5.4,0,0,1-.58-.08,7.12,7.12,0,0,0-1.52-.34,8.46,8.46,0,0,0-1,.22,5.87,5.87,0,0,0-.82-.06,3.29,3.29,0,0,0-1.77-.22c0,.15-.14.25-.2.37l-.17,0c-.28-.14-.58-.25-.85-.41a3.26,3.26,0,0,0-.4.24,2.51,2.51,0,0,0-2.53-.13,3.77,3.77,0,0,0-.68,0,5.47,5.47,0,0,0-1.6.43h-.22a2.62,2.62,0,0,1-1.72-.72l-.34.19a2.73,2.73,0,0,0-2.58.51h-.06l-.57-.1a2.22,2.22,0,0,0-1.91-.28,8.43,8.43,0,0,0-1,0c-1.66.08-3.36.17-5.12.22h-.47a5.88,5.88,0,0,0-1.18-.16,2.7,2.7,0,0,0-.67.1,9.53,9.53,0,0,0-3.08.26h-.05l-.82-.12c0-.07,0-.14,0-.21a6.23,6.23,0,0,1-1.68.14c-.07,0,0-.17,0-.2-.54.23-.82.07-.73-.41-.15.12-.52.2-.69.32-.43-.55-2.62-.18-3.43.14a19.6,19.6,0,0,0-2-.22c-1.2-.05-1.7,0-1.76.56H640v.53h0a.38.38,0,0,1,0,.1v.94h.11c0,.07,0,.13,0,.2.94,0,1.7-.19,2.52-.16a7.25,7.25,0,0,0,3,.26h1c1.28,0,2.56-.06,3.84,0a7.39,7.39,0,0,0,2.1,0,1.45,1.45,0,0,0,.22-.09c1.24,0,2.47-.09,3.71-.21h.81l.23.12a4.87,4.87,0,0,0,3.2.64c3.32-.15,7,.57,10.18-.3l1.84-.46h5.31a1.21,1.21,0,0,0,.86.06c.15,1.13,3.15.87,4.12.61,0-.07,0-.14,0-.21,1,0,3.33-.27,4,.08.36-.22.78-.32,1.09-.54h1.33c.43.33.73.8,1.26,1,.35-.82,1.66-.83,2.41-.81.34,0,.87.09,1.37.11a.16.16,0,0,1,0,.14,4.72,4.72,0,0,0,1.3,0s0,0-.07.09c.64.1,1.15-.06,1.34-.53h.38a6.22,6.22,0,0,0,1.94.58,24.18,24.18,0,0,0,2.47-.37,4.39,4.39,0,0,0,1.08-.21H707a16.21,16.21,0,0,0,4.2.21,6.43,6.43,0,0,0,2.48-.19l0,0H725Zm-75.23,0h-.93l0-.06Zm-3.27-.19h0Z" transform="translate(-638.62 -344.78)"/><path d="M693.1,405.91v1.88a3.15,3.15,0,0,0-.27.45,3.8,3.8,0,0,0,.07,2.53c.07.39.13.78.2,1.17v.76l.17.24,3,4,.2.26.33.07,1.21.24a2.47,2.47,0,0,0,.77.61c.43.12.79-.1,1.22-.09a6.05,6.05,0,0,1,1.78.35l-.8-1a19.69,19.69,0,0,0-.53,4L702,419.9a4.51,4.51,0,0,0-.6.08,19.53,19.53,0,0,1-3.82.53l-1.43,0h-5.79l-1.1-.2a13.3,13.3,0,0,0-3.55.2h-.83a4.51,4.51,0,0,1-.53-.08,6,6,0,0,0-1.4-.34,7.7,7.7,0,0,0-.89.22,4.71,4.71,0,0,0-.74-.06,2.82,2.82,0,0,0-1.63-.22,1,1,0,0,1-.19.37l-.14,0c-.26-.14-.54-.25-.79-.41l-.36.24a2.16,2.16,0,0,0-2.33-.13,3.13,3.13,0,0,0-.62,0,4.67,4.67,0,0,0-1.46.43h-.2a2.33,2.33,0,0,1-1.59-.72l-.3.19a2.35,2.35,0,0,0-2.37.51h0l-.53-.1a1.91,1.91,0,0,0-1.76-.28,6.91,6.91,0,0,0-.92,0l-2.08.11,1.19,1.18c0-.83-.08-1.71-.11-2.61v-.43a5.2,5.2,0,0,0,.16-1l-.55,1,.11-.07a2.4,2.4,0,0,0,.46-.43,8.16,8.16,0,0,0,2.2-1.78l0,0,.08-.05.06-.06h0l.62-.45c.07,0,.09.1.17.12a5.22,5.22,0,0,1,1-1.18c.06,0,.11.12.14.14.2-.52.49-.59.77-.18,0-.19.2-.48.22-.68a.86.86,0,0,0,.61-.24l.37-.29.11-.86a6.29,6.29,0,0,0-.4-2.53,16.66,16.66,0,0,0,.22-1.85c.05-1.1,0-1.56-.57-1.62v-1.47h-.52v0l-.09,0h-1v.1l-.2,0a21.91,21.91,0,0,1,.16,2.31,6.13,6.13,0,0,0-.26,2.77c0,.3,0,.6,0,.94v1.37l.29-.68c-.5.51-1,1-1.52,1.51a6.14,6.14,0,0,0-1.38,1.36.49.49,0,0,0-.06.17l.14-.11,0,0c-.94.64-1.83,1.33-2.72,2.05l-.14.1-.31.2V418l-.12.22a4.19,4.19,0,0,0-.64,2.93v.28l.06,1.49,1.38,0c3-.09,6.19.55,9-.29l1.69-.46h4.87a1,1,0,0,0,.79.06c.14,1.13,2.88.87,3.78.61,0-.07,0-.14,0-.21,1,0,3.06-.27,3.71.08.32-.22.72-.32,1-.54h1.22c.4.33.67.8,1.17,1,.32-.82,1.52-.83,2.2-.81.31,0,.8.09,1.26.11a.27.27,0,0,1,0,.14,3.89,3.89,0,0,0,1.18,0l-.06.09c.59.1,1.06-.06,1.23-.53h.35a5.32,5.32,0,0,0,1.78.58,20.44,20.44,0,0,0,2.26-.37,2.33,2.33,0,0,0,.45-.08l.9-.31-.08-.51a3.3,3.3,0,0,0-.13-.54v-4l-.55-.11-.1,0a13.92,13.92,0,0,0-3.73-1c-.34-.07-.73-.18-1.13-.25l.56.35a2.68,2.68,0,0,0-.85-.77h0L694.52,412l.14.41v-6.5Zm-23.55,8.15.61-.6.06,0Zm1.48-3.19h0l0-.08Z" transform="translate(-638.62 -344.78)"/><path d="M686,395a4.07,4.07,0,0,0-.4-.43,1.47,1.47,0,0,0,.08-.3c.06-.51-.4-.43-.72-.43h-.43a3.86,3.86,0,0,0-2-.31c-.11-.15-.23-.39-.35-.39s-.2.29-.31.4c-.29.28-.66.21-1.09.21s-.86.09-1,.54a9.06,9.06,0,0,1-.31,1.35,3.52,3.52,0,0,0-.15.42,3.85,3.85,0,0,0-.2,1.78,1.74,1.74,0,0,0-.14.38c-.14.47.34.74.58,1l.13.22a1,1,0,0,1,0,.19c0,.15-.09.47,0,.56s.26,0,.37.07a.67.67,0,0,0,.13.22c0,.22,0,.46.31.51a2.25,2.25,0,0,1,.26-.27h.05c0,.16,0,.31,0,.49a1.88,1.88,0,0,0,.23-.16c0,.49.32.78.68.4a.38.38,0,0,0,.2.1c.19,0,.38-.19.55-.34h.06a1.17,1.17,0,0,1,.51.75l.11-.21c.22.28.75,0,.7-.61h0l.19,0c.32.36.53.3.64.06a.67.67,0,0,0,.3-.13,4.73,4.73,0,0,0,1.06-1.17l.09-.11a.59.59,0,0,0,.34-.21.3.3,0,0,0,0-.23.81.81,0,0,0,.11-.94h0l.17-.2.21,0c-.05-.19-.13-.37-.05-.53s.16,0,.19,0c-.21-.19-.05-.26.43-.21-.12-.06-.19-.19-.32-.24.57-.15.1-.92-.28-1.06a1.38,1.38,0,0,0,0-.67c-.11-.39-.26-.5-.75-.23-.07-.13-.17-.25-.25-.37l-.42.32h0l-.07.06-.75.59h0l-.16.12c.13.09.32.12.35.26-.23.29-.19.4-.07.53l0,.15a1.22,1.22,0,0,1,0,.57c0,.11-.22.17-.07.31l.08.06a3.85,3.85,0,0,0-.06.63,1,1,0,0,1-.08.11l-.12,0c-.6-.23-.67-.28-.76-.11s-.37.17-.55.17-.31.07-.55.49a2,2,0,0,1-.34.42,2.31,2.31,0,0,1-.83-.34c0-.11,0-.18-.08-.13.63-.92.31-.87,0-.85l-.18.12c-.11-.07-.48-.3-.17-.51a5.19,5.19,0,0,1-.56,0,.93.93,0,0,1,0-.23c.31-.11.77-.2,1-.26-.82,0-.83-.23-.8-.34s.11-.12.16-.19l.14,0c.1,0,.05-.11.05-.17l.08,0c.14,0,0-.16-.41-.38l0-.06c.25,0,.58.11.64,0s-.1-.36-.06-.5a.9.9,0,0,0,0-.28,2.24,2.24,0,0,1,.55-.35c.35.22.47.05.71,0s.27.1.4-.2v0a2.34,2.34,0,0,1,1.65.88Zm.81,2.61a2.44,2.44,0,0,0,0-.27h.06A2.29,2.29,0,0,1,686.83,397.64Zm.13-1h0v0Z" transform="translate(-638.62 -344.78)"/><path d="M672.59,364l.07-.95a.63.63,0,0,0,.23-.08c.4-.2.17-.84.05-1.38l-.15-.69c0-.84.05-1.69.05-2.52v-.87h-1.75c-.13-.16-.25-.41-.41-.44s-.34.25-.54.32c-1,.37-2-.9-3-.44a4.64,4.64,0,0,1-1.76.53l-.66,0h-2.68l-.51-.2c-.58-.23-1.12.12-1.64.2h-.38a1.44,1.44,0,0,1-.25-.08l-.33-.22-.29-.18-.88,1.35a.55.55,0,0,0-.12.31c0,.14.17.28.22.41a1.12,1.12,0,0,0-.06.35c-.14.26-.37.37-.23.75a1.93,1.93,0,0,1,.38.09v.07c-.13.11-.25.24-.41.36l.25.17c-.45.28-.59.74-.13,1.07a.7.7,0,0,0,0,.29c0,.25.26.45.43.67v.1a1.55,1.55,0,0,1-.19.36l-.15.21,1.21.85a1.23,1.23,0,0,1,.4.54l.15-.2a.75.75,0,0,0,1.13-.51h0l.26.09c.36.42.64.44.9.27a1.84,1.84,0,0,0,.47,0c.74-.09,1.49-.18,2.26-.24h.22a1.63,1.63,0,0,0,.58.14.51.51,0,0,0,.27-.1,1.83,1.83,0,0,0,1.28-.28h0l.42.1a1.86,1.86,0,0,0,.11.19,1.16,1.16,0,0,1,.69-.15s.08.15.1.17c.13-.2.34-.07.55.34,0-.11.13-.18.15-.28a1.1,1.1,0,0,0,1.46-.18,6.71,6.71,0,0,0,1,.13c.58,0,.77,0,.41-.46l.7,0-.37-.37h0l-.08-.07-.67-.67h0l-.13-.14a4.87,4.87,0,0,1-.93.08,2.5,2.5,0,0,0-1.39-.24h-.41c-.52,0-1,0-1.54,0-.28,0-.67-.19-.85,0a.56.56,0,0,0,0,.08,7.34,7.34,0,0,0-1.41.16h-.33l-.13-.11c-.64-.59-.9-.69-1.45-.64-1.25.11-2.63-.57-3.84.19l1.22,1.21-.07-.11-.46-.78v-2.25c.1-.12.16-.24.06-.37.95,0,.91-1,.72-1.49L659,359.89l.26-.12a1.48,1.48,0,0,1,0-.21c.45,0,1.41-.27,1.71.08.15-.22.33-.32.46-.54H662a4.15,4.15,0,0,0,.53,1,.86.86,0,0,1,1-.81c.15,0,.37.09.58.11a.35.35,0,0,1,0,.14.83.83,0,0,0,.54,0,.23.23,0,0,1,0,.09c.28.1.49-.06.57-.53h.16c.29.23.51.56.83.58s.69-.3,1-.37a1,1,0,0,0,.46-.21h1.64a3,3,0,0,0,1.78.21,1.84,1.84,0,0,0,.84-.05l-.85-.85a.47.47,0,0,0,.15.19h0c0,1.43.09,2.83.2,4.32Zm-4.31.13h.42l0,.05Zm1.56.11h0Z" transform="translate(-638.62 -344.78)"/><path d="M672.59,374l.07-.95a.63.63,0,0,0,.23-.08c.4-.2.17-.84.05-1.38l-.15-.69c0-.84.05-1.69.05-2.52v-.87h-1.75c-.13-.16-.25-.41-.41-.44s-.34.25-.54.32c-1,.37-2-.9-3-.44a4.64,4.64,0,0,1-1.76.53l-.66,0h-2.68l-.51-.2c-.58-.23-1.12.12-1.64.2h-.38a1.44,1.44,0,0,1-.25-.08l-.33-.22-.29-.18-.88,1.35a.55.55,0,0,0-.12.31c0,.14.17.28.22.41a1.12,1.12,0,0,0-.06.35c-.14.26-.37.37-.23.75a1.93,1.93,0,0,1,.38.09v.07c-.13.11-.25.24-.41.36l.25.17c-.45.28-.59.74-.13,1.07a.7.7,0,0,0,0,.29c0,.25.26.45.43.67v.1a1.55,1.55,0,0,1-.19.36l-.15.21,1.21.85a1.23,1.23,0,0,1,.4.54l.15-.2a.75.75,0,0,0,1.13-.51h0l.26.09c.36.42.64.44.9.27a1.84,1.84,0,0,0,.47,0c.74-.09,1.49-.18,2.26-.24h.22a1.63,1.63,0,0,0,.58.14.51.51,0,0,0,.27-.1,1.83,1.83,0,0,0,1.28-.28h0l.42.1a1.86,1.86,0,0,0,.11.19,1.16,1.16,0,0,1,.69-.15s.08.15.1.17c.13-.2.34-.07.55.34,0-.11.13-.18.15-.28a1.1,1.1,0,0,0,1.46-.18,6.71,6.71,0,0,0,1,.13c.58,0,.77,0,.41-.46l.7,0-.37-.37h0l-.08-.07-.67-.67h0l-.13-.14a4.87,4.87,0,0,1-.93.08,2.5,2.5,0,0,0-1.39-.24h-.41c-.52,0-1,0-1.54,0-.28,0-.67-.19-.85,0a.56.56,0,0,0,0,.08,7.34,7.34,0,0,0-1.41.16h-.33l-.13-.11c-.64-.59-.9-.69-1.45-.64-1.25.11-2.63-.57-3.84.19l1.22,1.21-.07-.11-.46-.78v-2.25c.1-.12.16-.24.06-.37.95,0,.91-1,.72-1.49L659,369.89l.26-.12a1.48,1.48,0,0,1,0-.21c.45,0,1.41-.27,1.71.08.15-.22.33-.32.46-.54H662a4.15,4.15,0,0,0,.53,1,.86.86,0,0,1,1-.81c.15,0,.37.09.58.11a.35.35,0,0,1,0,.14.83.83,0,0,0,.54,0,.23.23,0,0,1,0,.09c.28.1.49-.06.57-.53h.16c.29.23.51.56.83.58s.69-.3,1-.37a1,1,0,0,0,.46-.21h1.64a3,3,0,0,0,1.78.21,1.84,1.84,0,0,0,.84-.05l-.85-.85a.47.47,0,0,0,.15.19h0c0,1.43.09,2.83.2,4.32Zm-4.31.13h.42l0,.05Zm1.56.11h0Z" transform="translate(-638.62 -344.78)"/><path d="M672.59,384l.07-.95a.63.63,0,0,0,.23-.08c.4-.2.17-.84.05-1.38l-.15-.69c0-.84.05-1.69.05-2.52v-.87h-1.75c-.13-.16-.25-.41-.41-.44s-.34.25-.54.32c-1,.37-2-.9-3-.44a4.64,4.64,0,0,1-1.76.53l-.66,0h-2.68l-.51-.2c-.58-.23-1.12.12-1.64.2h-.38a1.44,1.44,0,0,1-.25-.08l-.33-.22-.29-.18-.88,1.35a.55.55,0,0,0-.12.31c0,.14.17.28.22.41a1.12,1.12,0,0,0-.06.35c-.14.26-.37.37-.23.75a1.93,1.93,0,0,1,.38.09v.07c-.13.11-.25.24-.41.36l.25.17c-.45.28-.59.74-.13,1.07a.7.7,0,0,0,0,.29c0,.25.26.45.43.67v.1a1.55,1.55,0,0,1-.19.36l-.15.21,1.21.85a1.23,1.23,0,0,1,.4.54l.15-.2a.75.75,0,0,0,1.13-.51h0l.26.09c.36.42.64.44.9.27a1.84,1.84,0,0,0,.47,0c.74-.09,1.49-.18,2.26-.24h.22a1.63,1.63,0,0,0,.58.14.51.51,0,0,0,.27-.1,1.83,1.83,0,0,0,1.28-.28h0l.42.1a1.86,1.86,0,0,0,.11.19,1.16,1.16,0,0,1,.69-.15s.08.15.1.17c.13-.2.34-.07.55.34,0-.11.13-.18.15-.28a1.1,1.1,0,0,0,1.46-.18,6.71,6.71,0,0,0,1,.13c.58,0,.77,0,.41-.46l.7,0-.37-.37h0l-.08-.07-.67-.67h0l-.13-.14a4.87,4.87,0,0,1-.93.08,2.5,2.5,0,0,0-1.39-.24h-.41c-.52,0-1,0-1.54,0-.28,0-.67-.19-.85,0a.56.56,0,0,0,0,.08,7.34,7.34,0,0,0-1.41.16h-.33l-.13-.11c-.64-.59-.9-.69-1.45-.64-1.25.11-2.63-.57-3.84.19l1.22,1.21-.07-.11-.46-.78v-2.25c.1-.12.16-.24.06-.37.95,0,.91-1,.72-1.49L659,379.89l.26-.12a1.48,1.48,0,0,1,0-.21c.45,0,1.41-.27,1.71.08.15-.22.33-.32.46-.54H662a4.15,4.15,0,0,0,.53,1,.86.86,0,0,1,1-.81c.15,0,.37.09.58.11a.35.35,0,0,1,0,.14.83.83,0,0,0,.54,0,.23.23,0,0,1,0,.09c.28.1.49-.06.57-.53h.16c.29.23.51.56.83.58s.69-.3,1-.37a1,1,0,0,0,.46-.21h1.64a3,3,0,0,0,1.78.21,1.84,1.84,0,0,0,.84-.05l-.85-.85a.47.47,0,0,0,.15.19h0c0,1.43.09,2.83.2,4.32Zm-4.31.13h.42l0,.05Zm1.56.11h0Z" transform="translate(-638.62 -344.78)"/><path d="M706.81,383.17l-.28-.88a1.53,1.53,0,0,0,.19-.3c.28-.53-.15-.8-.45-1.17l-.38-.48c-.36-1-.78-2.07-1.22-3.09.1-.2.26-.42.22-.58s-.4-.24-.55-.4a2.73,2.73,0,0,1-.54-1.57,1.84,1.84,0,0,0-.68-1.49,8.48,8.48,0,0,1-1.6-1.28c-.15-.19-.34-.36-.51-.54a11.37,11.37,0,0,0-2.33-2c-.14-.16-.29-.31-.44-.46a1.44,1.44,0,0,0-.94-.41,6.84,6.84,0,0,0-1-.05l-.45-.08a2.49,2.49,0,0,1-.29-.11c-.21-.1-.56-.38-.8-.36s-.35.2-.51.27a2.09,2.09,0,0,0-.43,0c-.34-.06-.54-.25-1,0a1.7,1.7,0,0,1,0,.38l-.07.05c-.18-.08-.37-.13-.56-.22a1.51,1.51,0,0,0-.1.3,9.8,9.8,0,0,0-1.52.66,1.5,1.5,0,0,0-.39.81l-.08.07a1.29,1.29,0,0,1-1.12,0v.26a.84.84,0,0,0-.49,1.26l0,0-.25.15c-.55,0-.73.21-.78.56a1.63,1.63,0,0,0-.3.38c-.38.71-.72,1.45-1,2.21l-.1.2a1.4,1.4,0,0,0-.38.43.54.54,0,0,0,0,.33,2.06,2.06,0,0,0-.29,1.43v0l-.24.32a1.46,1.46,0,0,0-.2-.05,1.64,1.64,0,0,1-.12.79s-.15-.06-.18-.06c.15.31,0,.39-.49.22.1.11.12.3.21.41-.6.05-.45,1.18-.22,1.6a4.38,4.38,0,0,0-.37.9c-.15.56-.1.8.45.89l-.08.74.53,0v0h.1l.94.07v0l.19,0a5.08,5.08,0,0,1,0-1.09,1.47,1.47,0,0,0,.46-1.23l.09-.42a10.75,10.75,0,0,1,.4-1.58c.1-.27.38-.53.29-.85a.61.61,0,0,0,0-.12,15.1,15.1,0,0,0,.4-1.54l.15-.31.15,0c.74-.16,1-.32,1.19-.88a6.79,6.79,0,0,1,1.25-1.64,3.84,3.84,0,0,0,1.08-1.72,6.07,6.07,0,0,1,.3-.82,7.33,7.33,0,0,1,1.9-1c.14.07.25.1.34,0,.37,1.05,1.17.64,1.55.45a1.65,1.65,0,0,1,0-.21c.36-.05,1.26,0,1.38.39.2-.17.39-.18.59-.32l.48.24a8.72,8.72,0,0,0-.13,1.1c.57-.62,1-.31,1.23-.08s.2.3.34.45a.38.38,0,0,1-.09.12c.06.2.22.27.35.39l-.08,0c.1.26.36.29.77.05l.1.13c0,.37-.13.74,0,1s.63.4.89.64a1.14,1.14,0,0,0,.43.27c.29.48.55,1,.83,1.46a3.43,3.43,0,0,0,.6,1.73c.13.3.19.76.6.92h0c.64,1.52,1.14,3.1,1.63,4.68Zm-21.9-4.27-.12.42h-.06Zm-.55,1.43h0l0,0Z" transform="translate(-638.62 -344.78)"/><path d="M702.84,362.91a8.3,8.3,0,0,0-.09-1.11,1.44,1.44,0,0,0,.22-.31c.32-.61-.15-1-.5-1.46l-.48-.56a7.49,7.49,0,0,0-2.7-2.86c-.06-.22-.08-.53-.26-.65s-.52,0-.79,0a6.14,6.14,0,0,1-1.87-.74,2.23,2.23,0,0,0-2-.15c-.8.39-1.4.79-2.11,1.17a6.15,6.15,0,0,0-.73.44,7.31,7.31,0,0,0-2.39,2.43,4.45,4.45,0,0,0-.49.48,3,3,0,0,0-.46,2.1l-.07.48a1.92,1.92,0,0,1-.11.31c-.11.22-.37.59-.33.85a1.86,1.86,0,0,0,.26.53,2.44,2.44,0,0,0,0,.47c-.07.35-.25.57,0,1a2.6,2.6,0,0,1,.39,0l.05.08c-.08.19-.13.4-.21.6a1.73,1.73,0,0,0,.32.11.88.88,0,0,0,.62,1.31,1.12,1.12,0,0,0,.2.33,1.75,1.75,0,0,0,.92.38l.08.08a1.59,1.59,0,0,1,.29,1.19l.28,0a1,1,0,0,0,1.51.27l0,0,.26.21a.75.75,0,0,0,.94.58,1.53,1.53,0,0,0,.57.13,8.22,8.22,0,0,0,2.87-.3l.26-.07a1.35,1.35,0,0,0,.69,0,1.09,1.09,0,0,0,.32-.23,2.24,2.24,0,0,0,1.36-1.06h0l.43-.18c.06,0,.09.12.15.15a2.54,2.54,0,0,1,.6-.74s.11.11.14.13c0-.38.27-.39.6,0,0-.15,0-.37,0-.53.63.16,1-1.22.88-1.76a3.77,3.77,0,0,0,.57-1c.23-.67.17-1-.36-1.08,0-.29,0-.58.05-.87h-.53v0l-.09,0h-1v0h-.2a2.8,2.8,0,0,1,0,1.07,1.78,1.78,0,0,0-.63,1.12l-.17.38a4.91,4.91,0,0,1-.92,1.26c-.22.17-.55.26-.66.55,0,0,0,.08,0,.13a15.32,15.32,0,0,1-1.28.9,2.13,2.13,0,0,1-.33.11l-.13-.09a1.38,1.38,0,0,0-1.35-.44,3.33,3.33,0,0,1-1.84-.4,5.31,5.31,0,0,0-1.85-.61,4,4,0,0,1-.86-.22,5.72,5.72,0,0,1-1.12-2c0-.14.08-.27-.05-.37,1-.37.63-1.29.42-1.71-.07,0-.14,0-.21,0,0-.4-.07-1.39.38-1.53-.15-.21-.19-.42-.32-.62a3,3,0,0,1,.26-.5c.38,0,.82.15,1.09.11a.74.74,0,0,1,0-1.23,4.18,4.18,0,0,1,.5-.29.52.52,0,0,1,.11.1c.2,0,.27-.19.42-.3s0,.05,0,.09c.27,0,.35-.29.21-.73l.15-.07c.36.06.67.32.94.24s.55-.46.89-.57a1.73,1.73,0,0,0,.43-.24,5.07,5.07,0,0,1,1.65.16,7.21,7.21,0,0,0,1.55.87c.27.16.53.5,1,.47h0a5.83,5.83,0,0,1,1.91,4.3ZM701,367.78a4.16,4.16,0,0,0,.32-.39l0,0A3.23,3.23,0,0,1,701,367.78Zm1.17-1.37h0l0,0Z" transform="translate(-638.62 -344.78)"/></g></svg>