<svg id="Ebene_1" data-name="Ebene 1" xmlns="http://www.w3.org/2000/svg" viewBox="0 0 87 77"><defs><style>.cls-1{fill:none;stroke:#000;stroke-miterlimit:10;stroke-width:2px;}</style></defs><g id="SCREEN"><polygon class="cls-1" points="5 1 82 1 86 6 86 55 82 60 5 60 1 55 1 5 5 1"/><line class="cls-1" x1="4" y1="8" x2="80" y2="8"/><polyline class="cls-1" points="82 12 82 42 5 42 5 39"/><line class="cls-1" x1="5" y1="35" x2="5" y2="31"/><line class="cls-1" x1="1" y1="46" x2="86" y2="46"/><polyline class="cls-1" points="31 59.5 31 67 28 70 25 72 25 76 63 76 63 72 58 71 55 67 55 60.5"/><circle class="cls-1" cx="44" cy="52" r="3"/><rect class="cls-1" x="20" y="13" width="13" height="5"/><rect class="cls-1" x="20" y="23" width="13" height="5"/><rect class="cls-1" x="20" y="33" width="13" height="5"/><path class="cls-1" d="M685.1,383.44c1-13,14-24,21,0" transform="translate(-639.1 -345.44)"/><circle class="cls-1" cx="56.5" cy="17.5" r="6.5"/></g></svg>